<svg width="436" height="451" viewBox="0 0 436 451" fill="none" xmlns="http://www.w3.org/2000/svg">
<path d="M385.067 386.461C376.181 396.135 367.774 402.374 361.132 407.303C283.052 465.242 190.663 448.353 171.028 444.228C142.033 438.138 85.9861 426.365 45.4652 377.084C-15.8395 302.525 -6.29348 185.06 41.2586 107.519C49.9565 93.3359 95.9021 14.6145 189.286 1.99008C245.801 -5.65004 311.679 9.75917 359.387 51.0954C459.528 137.864 452.399 313.151 385.067 386.461Z" fill="url(#paint0_linear_90_299)"/>
<path d="M219.889 432.3C219.889 432.3 305.15 206.814 431.811 182.182C434.058 181.745 436.106 183.626 435.996 186.016C434.715 213.83 418.49 361.031 219.889 432.3Z" fill="#7D97F4"/>
<path opacity="0.62" d="M409.055 218.756C402.587 228.419 395.81 237.827 388.939 247.164C387.224 249.5 385.47 251.805 383.738 254.127C381.992 256.438 380.283 258.779 378.506 261.064L373.194 267.936C371.416 270.219 369.675 272.535 367.853 274.781C364.234 279.295 360.65 283.84 357.002 288.327L345.946 301.691C338.445 310.48 330.949 319.276 323.217 327.846L317.464 334.318C315.568 336.499 313.559 338.564 311.613 340.694L299.869 353.407L287.822 365.81C285.809 367.872 283.817 369.956 281.765 371.976L275.551 377.97C271.4 381.955 267.292 385.992 263.071 389.897L250.238 401.409L247.015 404.268C245.932 405.21 244.879 406.189 243.771 407.1L237.141 412.586C234.938 414.421 232.703 416.217 230.486 418.033C228.266 419.847 226.044 421.656 223.809 423.447C223.638 423.584 223.393 423.549 223.262 423.37C223.136 423.198 223.161 422.953 223.317 422.813L223.328 422.803C225.463 420.884 227.612 418.984 229.764 417.089C231.917 415.195 234.053 413.281 236.221 411.408L242.704 405.765C244.841 403.855 246.912 401.863 249.033 399.933L261.728 388.317L274.161 376.396L280.383 370.44C281.423 369.451 282.413 368.406 283.432 367.393L286.482 364.346L298.68 352.155C306.614 343.816 314.68 335.606 322.341 326.983C326.211 322.711 330.126 318.483 333.863 314.083C337.633 309.714 341.436 305.376 345.178 300.981L356.273 287.674C359.933 283.204 363.531 278.678 367.163 274.183C368.992 271.946 370.74 269.639 372.525 267.365L377.857 260.52C379.641 258.244 381.358 255.911 383.111 253.61C384.85 251.297 386.611 249 388.334 246.673C395.198 237.348 401.966 227.931 408.411 218.294L408.416 218.287C408.539 218.103 408.782 218.057 408.959 218.187C409.135 218.317 409.178 218.571 409.055 218.756L409.055 218.756Z" fill="white"/>
<g opacity="0.79">
<path d="M199.229 302.981C199.229 302.981 240.677 103.866 365.801 0.648275C367.432 -0.697525 369.847 0.153628 370.345 2.26466C378.216 35.6063 419.195 248.27 199.229 302.981Z" fill="#91B3FA"/>
<path opacity="0.62" d="M352.515 58.09C351.079 63.8664 349.407 69.557 347.643 75.2221C345.875 80.8839 344.019 86.5163 342.046 92.1046C338.088 103.276 333.779 114.312 329.134 125.193C327.982 127.918 326.767 130.613 325.586 133.324C324.399 136.032 323.115 138.693 321.884 141.38C320.662 144.071 319.341 146.712 318.059 149.372L316.119 153.354L314.111 157.3C308.763 167.823 303.128 178.194 297.056 188.284C290.965 198.358 284.635 208.284 277.806 217.832C276.96 219.031 276.131 220.243 275.272 221.432L272.652 224.965L270.032 228.497C269.154 229.67 268.302 230.865 267.381 232.003L261.94 238.9L260.574 240.619L259.159 242.294L256.329 245.645C241.311 263.582 224.502 279.866 206.327 294.201C206.178 294.319 205.965 294.287 205.852 294.131C205.741 293.978 205.767 293.761 205.908 293.641L205.915 293.635L212.514 288.001L215.818 285.193L219.016 282.253L225.404 276.368L231.58 270.24C232.602 269.211 233.655 268.217 234.662 267.172L237.653 264.006C239.636 261.884 241.662 259.806 243.611 257.651C247.443 253.275 251.365 248.986 255.013 244.437L257.794 241.07L259.185 239.387L260.526 237.66L265.906 230.765C266.818 229.629 267.662 228.436 268.533 227.264L271.128 223.738L273.723 220.212C274.574 219.025 275.395 217.815 276.233 216.618C282.997 207.088 289.264 197.181 295.293 187.129C301.354 177.094 307.018 166.797 312.379 156.332L314.394 152.41L316.341 148.45C317.628 145.804 318.954 143.179 320.182 140.501C322.7 135.18 325.13 129.814 327.523 124.428C332.273 113.64 336.685 102.686 340.759 91.5963C342.827 86.0625 344.778 80.4823 346.643 74.8695C347.577 72.0644 348.478 69.2466 349.348 66.4192C350.232 63.5971 351.077 60.7564 351.858 57.9091L351.86 57.9021C351.912 57.7134 352.1 57.6042 352.28 57.6585C352.458 57.7121 352.561 57.904 352.515 58.09Z" fill="white"/>
</g>
<g opacity="0.76">
<path d="M134.204 292.295C134.204 292.295 118.04 115.662 20.0611 12.878C18.7836 11.5379 16.612 12.0123 15.9726 13.7834C5.87413 41.757 -50.5631 221.178 134.204 292.295Z" fill="#91B3FA"/>
<path opacity="0.62" d="M26.5016 63.8862C28.1741 74.0706 30.3377 84.1848 32.8114 94.1964C35.2461 104.221 37.9865 114.164 41.034 124.001C42.5756 128.912 44.1491 133.813 45.8004 138.685C46.5972 141.132 47.4846 143.544 48.3367 145.97L49.6293 149.603L50.9844 153.211C54.5867 162.834 58.4692 172.345 62.7173 181.674C66.9327 191.015 71.3682 200.258 76.2708 209.227C76.8763 210.353 77.4661 211.488 78.0838 212.606L79.9777 215.934L81.8718 219.264C82.5078 220.37 83.1191 221.493 83.795 222.573L87.7617 229.116L88.749 230.755L89.7831 232.361L91.8518 235.574C94.5518 239.902 97.5145 244.036 100.391 248.236C101.861 250.311 103.405 252.328 104.908 254.377L107.178 257.439C107.944 258.452 108.756 259.426 109.536 260.427L114.261 266.398L119.194 272.184L121.664 275.075L124.238 277.863L129.376 283.458L129.383 283.464C129.513 283.606 129.509 283.832 129.373 283.968C129.242 284.1 129.034 284.099 128.903 283.968C114.578 269.633 101.636 253.741 90.4086 236.61L88.2895 233.407L87.2296 231.806L86.2171 230.172L82.1906 223.62C81.5065 222.536 80.8872 221.41 80.2433 220.301L78.3256 216.962L76.408 213.624C75.7824 212.503 75.1849 211.365 74.5718 210.237C69.6068 201.241 65.111 191.972 60.8363 182.602C56.5833 173.217 52.7385 163.637 49.1555 153.956L47.8099 150.326L46.5266 146.672C45.6811 144.232 44.8002 141.805 44.0098 139.345C43.2116 136.888 42.3656 134.448 41.6064 131.977C40.8556 129.503 40.0731 127.041 39.3484 124.559C33.5236 104.721 28.6841 84.5395 25.8283 63.9841C25.8014 63.7902 25.9298 63.6094 26.1158 63.5811C26.2984 63.5534 26.4681 63.6829 26.4994 63.8721L26.5016 63.8862Z" fill="white"/>
</g>
<path d="M47.3186 23.3826C45.9154 92.6971 41.3652 331.788 43.5374 416.515C43.7676 425.49 49.6428 432.695 56.9719 432.989C93.2205 434.441 226.106 438.124 285.396 435.077C297.745 434.443 307.566 422.192 307.822 407.058C309.055 334.304 311.773 129.674 305.312 35.9327C304.538 24.7012 297.339 15.7571 288.182 14.6349C248.705 9.79837 115.249 -2.0241 64.0252 2.04701C54.7869 2.78122 47.548 12.0485 47.3186 23.3826Z" fill="url(#paint1_linear_90_299)"/>
<path d="M63.4927 44.6487C61.5417 100.596 55.3873 286.718 57.3405 355.542C57.626 365.602 64.0997 373.736 72.3046 374.324C106.087 376.745 221.342 382.083 270.892 377.224C279.814 376.349 286.815 367.512 287.297 356.566C289.808 299.489 297.017 126.182 295.145 58.1295C294.846 47.2732 287.98 38.4071 279.146 37.4358C242.599 33.4171 120.127 23.8552 78.0215 26.6686C70.1173 27.1968 63.8305 34.9631 63.4927 44.6487Z" fill="#7D97F4"/>
<path d="M154.109 15.7962C154.109 17.923 155.463 19.6772 157.197 19.7882C165.759 20.3373 189.877 21.891 200.656 22.6568C202.781 22.808 204.45 20.4683 204.046 17.9083L203.977 17.4714C203.702 15.7247 202.519 14.4099 201.073 14.2475C193.787 13.4298 171.802 11.1626 157.235 11.7995C155.486 11.8762 154.109 13.6519 154.109 15.7962Z" fill="url(#paint2_linear_90_299)"/>
<path d="M170.956 161.99C198.88 161.99 221.517 138.292 221.517 109.06C221.517 79.8267 198.88 56.1288 170.956 56.1288C143.032 56.1288 120.396 79.8267 120.396 109.06C120.396 138.292 143.032 161.99 170.956 161.99Z" fill="url(#paint3_linear_90_299)"/>
<path d="M186.436 89.0587C186.436 98.0212 179.496 107.697 170.934 107.697C162.373 107.697 155.433 98.0212 155.433 89.0587C155.433 80.0962 162.373 73.7378 170.934 73.7378C179.496 73.7378 186.436 80.0962 186.436 89.0587Z" fill="white"/>
<path d="M151.698 142.203H189.54C193.523 142.203 197.05 139.508 198.264 135.536L200.3 128.874C201.791 123.995 199.367 118.713 194.772 116.955C179.372 111.06 163.447 111.816 147.135 117.499C142.565 119.09 140.029 124.208 141.29 129.074L142.858 135.125C143.941 139.303 147.563 142.203 151.698 142.203Z" fill="white"/>
<g opacity="0.71">
<path opacity="0.65" d="M267.93 246.522H83.4026C82.8391 246.522 82.3823 246.043 82.3823 245.453V217.541C82.3823 216.951 82.8391 216.473 83.4026 216.473H267.93C268.494 216.473 268.951 216.951 268.951 217.541V245.453C268.951 246.043 268.494 246.522 267.93 246.522Z" fill="white"/>
<path opacity="0.65" d="M266.924 295.548H82.3962C81.8328 295.548 81.376 295.07 81.376 294.48V266.568C81.376 265.978 81.8328 265.5 82.3962 265.5H266.924C267.488 265.5 267.944 265.978 267.944 266.568V294.48C267.944 295.07 267.488 295.548 266.924 295.548Z" fill="white"/>
<path opacity="0.65" d="M230.896 354.022H112.89C112.195 354.022 111.631 353.432 111.631 352.704V317.031C111.631 316.303 112.195 315.713 112.89 315.713H230.896C231.591 315.713 232.155 316.303 232.155 317.031V352.704C232.155 353.432 231.591 354.022 230.896 354.022Z" fill="white"/>
</g>
<path opacity="0.75" d="M199.958 239.974H92.4611C91.4594 239.974 90.6475 239.124 90.6475 238.075V225.178C90.6475 224.13 91.4594 223.28 92.4611 223.28H199.958C200.959 223.28 201.771 224.13 201.771 225.178V238.075C201.772 239.124 200.96 239.974 199.958 239.974Z" fill="white"/>
<g opacity="0.75">
<path d="M97.0216 286.024C100.362 284.575 101.948 280.566 100.565 277.069C99.1809 273.572 95.3513 271.911 92.0108 273.36C88.6704 274.808 87.0841 278.818 88.4678 282.315C89.8515 285.812 93.6812 287.472 97.0216 286.024Z" fill="white"/>
<path d="M112.469 286.893C116.085 286.893 119.016 283.824 119.016 280.039C119.016 276.254 116.085 273.186 112.469 273.186C108.854 273.186 105.923 276.254 105.923 280.039C105.923 283.824 108.854 286.893 112.469 286.893Z" fill="white"/>
<path d="M136.121 282.519C136.952 278.835 134.773 275.144 131.254 274.274C127.735 273.404 124.209 275.685 123.378 279.369C122.548 283.053 124.726 286.744 128.245 287.614C131.764 288.484 135.29 286.203 136.121 282.519Z" fill="white"/>
<path d="M147.719 288.123C151.335 288.123 154.266 285.054 154.266 281.269C154.266 277.484 151.335 274.416 147.719 274.416C144.104 274.416 141.173 277.484 141.173 281.269C141.173 285.054 144.104 288.123 147.719 288.123Z" fill="white"/>
<path d="M165.679 287.946C169.295 287.946 172.226 284.878 172.226 281.093C172.226 277.308 169.295 274.239 165.679 274.239C162.063 274.239 159.132 277.308 159.132 281.093C159.132 284.878 162.063 287.946 165.679 287.946Z" fill="white"/>
<path d="M183.642 288.298C187.257 288.298 190.188 285.23 190.188 281.445C190.188 277.66 187.257 274.591 183.642 274.591C180.026 274.591 177.095 277.66 177.095 281.445C177.095 285.23 180.026 288.298 183.642 288.298Z" fill="white"/>
</g>
<path d="M258.399 303.817L278.455 309.066L273.441 348.434C273.441 348.434 280.963 356.307 283.469 366.805C285.976 377.303 288.288 421.383 288.288 421.383L293.047 424.395L293.625 426.909L279.78 446.398L282.076 430.887C282.441 428.424 281.809 423.43 282.008 423.326C274.487 402.33 258.399 343.184 258.399 343.184V303.817Z" fill="url(#paint4_linear_90_299)"/>
<path d="M252.539 427.179C252.756 427.175 252.97 427.193 253.188 427.179C252.219 414.522 247.79 358.814 243.358 337.935C238.344 314.315 250.879 267.073 250.879 267.073L273.442 290.694L260.907 335.311C269.497 348.8 259.505 427.796 259.721 427.762L259.707 427.937L262.978 432.646L262.58 435.198L242.599 447.542L250.461 434.176C251.709 432.054 252.398 429.649 252.539 427.179Z" fill="url(#paint5_linear_90_299)"/>
<path d="M277.918 162.314C277.918 162.314 321.848 214.147 277.918 240.723L273.442 237.33C273.442 237.33 295.252 215.466 273.442 188.702L277.918 162.314Z" fill="url(#paint6_linear_90_299)"/>
<path d="M241.283 449.477H247.66C248.853 449.477 249.979 448.904 250.706 447.913C252.694 445.209 256.813 439.934 258.782 439.797C261.433 439.611 261.094 449.477 261.094 449.477H262.58L264.462 437.217C264.936 434.132 263.47 431.077 260.824 429.631C260.824 429.631 260.218 434.323 256.932 436.398C253.647 438.474 243.561 445.906 243.561 445.906C243.561 445.906 242.326 445.721 240.97 445.978C238.958 446.358 239.239 449.477 241.283 449.477Z" fill="url(#paint7_linear_90_299)"/>
<path d="M279.285 448.717L285.162 446.128C286.262 445.644 287.087 444.658 287.392 443.45C288.222 440.15 290.064 433.616 291.829 432.689C294.203 431.442 297.545 440.674 297.545 440.674L298.915 440.071L296.109 428.006C295.403 424.971 292.92 422.749 289.946 422.491C289.946 422.491 291.125 427.061 288.865 430.308C286.605 433.555 280.061 444.499 280.061 444.499C280.061 444.499 278.855 444.831 277.699 445.618C275.986 446.786 277.4 449.547 279.285 448.717Z" fill="url(#paint8_linear_90_299)"/>
<path d="M245.132 227.133C245.132 227.133 245.869 231.864 244.789 244.87C243.709 257.875 238.545 288.409 239.596 317.624C239.596 317.624 254.276 321.205 279.78 319.509C279.78 319.509 290.543 273.896 287.921 256.555C285.299 239.215 271.075 226.775 271.075 226.775L245.132 227.133Z" fill="url(#paint9_linear_90_299)"/>
<path d="M255.979 140.228L254.185 162.314H271.231L266.992 128.601L255.979 140.228Z" fill="url(#paint10_linear_90_299)"/>
<path d="M276.281 159.26C270.398 158.92 257.245 158.292 247.927 158.823C243.021 159.103 238.911 162.788 237.908 167.823L235.635 179.225C234.789 183.472 234.915 187.868 236.004 192.054L245.133 227.134C245.133 227.134 253.252 232.241 271.076 226.775C271.076 226.775 286.73 187.698 280.322 162.7C279.824 160.758 278.198 159.371 276.281 159.26Z" fill="url(#paint11_linear_90_299)"/>
<path d="M238.354 165.778C235.843 172.702 233.575 179.962 231.139 186.762C229.9 190.166 228.643 193.502 227.299 196.566C226.619 198.092 225.872 199.494 225.187 200.765C224.5 202.024 223.728 203.071 223.325 203.552C223.246 203.624 223.511 203.678 223.599 203.683C223.652 203.69 221.902 203.983 221.365 204.078L219.266 204.064C216.259 203.903 212.852 203.348 209.435 202.652C202.543 201.307 195.378 199.418 188.021 197.989L187.964 197.979C186.556 197.705 185.203 198.678 184.942 200.152C184.77 201.124 185.119 202.074 185.778 202.685C188.745 205.418 191.889 207.664 195.151 209.85C196.793 210.901 198.463 211.931 200.162 212.92C201.893 213.844 203.629 214.776 205.433 215.637C209.064 217.293 212.815 218.819 217.136 219.799C218.272 219.998 219.392 220.206 220.561 220.37C221.871 220.418 223.061 220.539 224.492 220.453C225.253 220.374 226.016 220.276 226.778 220.16C227.184 220.085 227.483 220.077 227.975 219.935C228.497 219.771 229.018 219.587 229.531 219.386C230.604 218.983 231.298 218.495 232.17 217.987C232.893 217.487 233.553 216.965 234.193 216.429C236.556 214.323 238.023 212.232 239.315 210.225C240.605 208.219 241.627 206.21 242.544 204.241C244.384 200.307 245.821 196.41 246.987 192.486C249.349 184.621 250.95 176.892 251.626 168.682C251.95 164.75 249.167 161.287 245.41 160.948C242.301 160.668 239.5 162.615 238.443 165.524L238.354 165.778Z" fill="url(#paint12_linear_90_299)"/>
<path d="M190.336 201.519L187.294 193.96L171.284 189.783C171.284 189.783 170.004 192.689 176.728 193.96C176.728 193.96 174.326 196.739 175.607 200.007C176.888 203.275 190.496 206.55 190.336 201.519Z" fill="url(#paint13_linear_90_299)"/>
<path d="M248.762 114.721C248.153 115.097 243.357 132.804 247.376 140.228C251.395 147.652 263.667 139.337 266.992 128.601C270.318 117.866 264.975 104.711 248.762 114.721Z" fill="url(#paint14_linear_90_299)"/>
<path d="M280.569 128.601C283.321 142.72 292.441 138.856 298.901 145.137C309.371 155.318 324.348 144.823 338.908 154.47C349.419 161.435 354.484 179.253 349.44 193.639C342.453 213.564 318.578 221.759 306.205 215.69C294.38 209.89 296.063 192.519 280.153 185.806C273.398 182.955 270.064 184.807 266.018 180.583C258.937 173.188 260.848 158.838 261.584 153.31C263.181 141.314 267.023 139.142 265.187 133.871C261.616 123.616 244.958 125.732 243.569 118.493C242.305 111.901 254.379 99.4059 265.741 101.375C283.321 104.421 279.342 122.311 280.569 128.601Z" fill="url(#paint15_linear_90_299)"/>
<path opacity="0.6" d="M344.189 190.265C344.398 190.265 344.586 190.117 344.637 189.896C346.887 180.114 345.866 172.092 341.6 166.051C334.521 156.026 320.761 155.034 320.623 155.026C320.406 154.988 320.152 155.211 320.136 155.478C320.12 155.743 320.313 155.972 320.567 155.987C320.701 155.996 334.044 156.965 340.864 166.63C344.958 172.429 345.926 180.181 343.741 189.67C343.682 189.929 343.834 190.189 344.081 190.251C344.117 190.26 344.154 190.265 344.189 190.265Z" fill="white"/>
<path opacity="0.72" d="M299.124 199.22C299.143 199.22 299.162 199.217 299.182 199.212C299.304 199.178 299.378 199.047 299.347 198.918C297.154 190.111 293.307 183.996 287.913 180.739C283.99 178.369 280.315 178.149 277.074 177.954C273.948 177.766 271.249 177.603 269.076 175.581C264.586 171.4 264.845 161.348 269.85 145.703C269.89 145.577 269.824 145.441 269.704 145.399C269.583 145.356 269.453 145.425 269.413 145.551C264.344 161.395 264.129 171.62 268.771 175.941C271.063 178.075 273.836 178.243 277.048 178.435C280.238 178.627 283.854 178.845 287.683 181.157C292.966 184.346 296.741 190.363 298.901 199.04C298.928 199.148 299.021 199.22 299.124 199.22Z" fill="white"/>
<path opacity="0.72" d="M274.056 125.097C274.08 125.097 274.104 125.094 274.13 125.085C274.25 125.043 274.315 124.906 274.274 124.779C272.531 119.351 267.51 120.158 262.189 121.014C258.822 121.556 255.341 122.114 252.388 121.2C250.185 120.516 248.876 119.456 248.498 118.049C247.851 115.654 250.115 112.984 250.137 112.956C250.223 112.858 250.214 112.705 250.12 112.617C250.027 112.527 249.88 112.536 249.796 112.634C249.695 112.751 247.341 115.526 248.054 118.179C248.478 119.755 249.892 120.927 252.257 121.661C255.31 122.608 258.842 122.04 262.26 121.491C267.6 120.633 272.218 119.888 273.838 124.934C273.87 125.034 273.96 125.097 274.056 125.097Z" fill="white"/>
<path d="M324.792 70.2661C324.792 45.4184 344.898 25.2779 369.025 25.2813C392.439 25.2843 410.918 44.3641 410.918 67.8973C410.918 91.4305 392.439 111.527 369.025 112.818C344.898 114.148 324.792 95.1138 324.792 70.2661Z" fill="url(#paint16_linear_90_299)"/>
<path d="M328.829 70.1552C328.829 47.6361 347.05 29.3834 368.916 29.3861C390.136 29.389 406.883 46.6805 406.883 68.0083C406.883 89.336 390.136 107.549 368.916 108.719C347.05 109.925 328.829 92.6741 328.829 70.1552Z" fill="url(#paint17_linear_90_299)"/>
<path d="M355.928 67.6016H352.336V52.6137C352.336 46.727 356.545 41.7522 362.127 41.0419L369.473 40.1074C372.634 39.7051 375.815 40.7424 378.2 42.9534C380.584 45.1643 381.951 48.3447 381.951 51.6792V64.7638H378.359V51.6792C378.359 49.4207 377.432 47.2663 375.817 45.7688C374.203 44.2712 372.048 43.5685 369.906 43.841L362.561 44.7755C358.78 45.2565 355.929 48.6262 355.929 52.6137L355.928 67.6016Z" fill="white"/>
<path d="M351.274 64.2367L382.766 62.4101C384.045 62.3359 385.121 63.4018 385.121 64.7429V90.861C385.121 92.1513 384.122 93.1972 382.89 93.1972H352.154C350.95 93.1972 349.963 92.197 349.923 90.9371L349.167 66.6455C349.127 65.3764 350.063 64.3068 351.274 64.2367Z" fill="white"/>
<path d="M372.277 85.7152L370.371 79.9783C370.142 79.2886 370.298 78.5175 370.788 77.9977C371.765 76.9616 372.347 75.5167 372.278 73.9299C372.156 71.1315 369.972 68.8626 367.299 68.755C364.339 68.636 361.905 71.1121 361.905 74.1834C361.905 75.8873 362.654 77.4073 363.827 78.4031C364.435 78.9196 364.685 79.7684 364.428 80.5426L362.709 85.7154C362.291 86.9733 363.184 88.2872 364.456 88.2872H370.53C371.803 88.287 372.695 86.9732 372.277 85.7152Z" fill="url(#paint18_linear_90_299)"/>
<g opacity="0.3">
<path d="M106.982 401.149C107.362 401.99 107.112 403.027 106.376 403.539C104.767 404.66 103.089 405.72 101.39 406.69C100.563 407.163 99.5429 406.808 99.1117 405.898C99.1067 405.887 99.1019 405.876 99.097 405.865C98.6883 404.961 99.0107 403.861 99.8276 403.395C101.442 402.473 103.036 401.466 104.564 400.402C105.351 399.854 106.395 400.112 106.895 400.979C106.927 401.034 106.956 401.092 106.982 401.149ZM93.7681 408.213C93.7974 408.278 93.8239 408.346 93.8467 408.416C94.1612 409.382 93.7048 410.443 92.8272 410.787C91.0243 411.492 89.176 412.12 87.3338 412.652C86.4325 412.912 85.5118 412.322 85.2689 411.328C85.0303 410.336 85.5676 409.322 86.4681 409.062C88.2192 408.556 89.975 407.959 91.6883 407.289C92.5022 406.97 93.3922 407.381 93.7681 408.213ZM79.4613 411.898C79.545 412.083 79.6018 412.287 79.6257 412.504C79.7365 413.522 79.0766 414.444 78.151 414.564C76.2537 414.81 74.3226 414.968 72.4115 415.034C71.4795 415.065 70.6997 414.26 70.6673 413.237C70.6361 412.212 71.3661 411.356 72.2978 411.323C74.1127 411.261 75.9458 411.111 77.7478 410.878C78.4762 410.783 79.1522 411.214 79.4613 411.898ZM64.7536 411.97C64.892 412.276 64.9552 412.628 64.92 412.992C64.8216 414.011 63.9898 414.748 63.063 414.637C61.1612 414.409 59.2455 414.089 57.3688 413.684C56.4545 413.486 55.8563 412.511 56.0327 411.505C56.21 410.5 57.0959 409.844 58.0112 410.041C59.7933 410.426 61.6128 410.731 63.4202 410.946C64.0154 411.018 64.5051 411.421 64.7536 411.97ZM50.3928 408.435C50.5869 408.864 50.6309 409.375 50.4787 409.863C50.1768 410.832 49.217 411.347 48.3352 411.012C46.5303 410.329 44.7262 409.55 42.9741 408.698C42.1202 408.284 41.732 407.188 42.1077 406.25C42.483 405.313 43.4787 404.889 44.3326 405.304C45.998 406.113 47.7128 406.853 49.428 407.503C49.8656 407.669 50.2019 408.012 50.3928 408.435ZM37.0943 401.497C37.3457 402.053 37.3387 402.734 37.0207 403.3C36.531 404.171 35.4914 404.439 34.6977 403.899C33.0714 402.792 31.4676 401.595 29.9319 400.339C29.1825 399.727 29.0254 398.564 29.5808 397.742C30.1353 396.92 31.1928 396.749 31.9419 397.362C33.4014 398.554 34.9247 399.692 36.4699 400.744C36.7483 400.933 36.9587 401.197 37.0943 401.497ZM5.93256 342.493C6.0367 342.724 6.09867 342.981 6.10744 343.255C6.17137 345.248 6.31542 347.265 6.53595 349.25C6.64886 350.267 5.9903 351.191 5.06526 351.313C4.13976 351.435 3.29785 350.709 3.18479 349.691C2.95263 347.601 2.80057 345.476 2.73301 343.377C2.70006 342.353 3.4289 341.495 4.3606 341.461C5.04395 341.436 5.64673 341.861 5.93256 342.493ZM25.5254 391.501C25.8375 392.191 25.736 393.05 25.2175 393.629C24.5636 394.358 23.495 394.365 22.8301 393.645C21.4673 392.169 20.1464 390.609 18.9038 389.01C18.301 388.226 18.3796 387.058 19.0884 386.393C19.7965 385.728 20.8623 385.822 21.469 386.602C22.6487 388.121 23.9033 389.602 25.1971 391.004C25.3342 391.153 25.4442 391.322 25.5254 391.501ZM8.1055 358.491C8.15507 358.601 8.19618 358.718 8.22596 358.841C8.69423 360.77 9.24501 362.702 9.86156 364.585C10.1775 365.55 9.72265 366.613 8.84583 366.958C7.96885 367.303 6.99771 366.803 6.68514 365.835C6.0367 363.854 5.45719 361.821 4.96384 359.791C4.7232 358.8 5.25827 357.784 6.15883 357.522C6.94753 357.292 7.75528 357.717 8.1055 358.491ZM16.2709 378.92C16.6506 379.759 16.4012 380.795 15.6672 381.308C14.8813 381.857 13.8377 381.601 13.3354 380.736C12.3084 378.964 11.3369 377.12 10.4491 375.254C10.4432 375.242 10.4377 375.23 10.4325 375.219C10.0243 374.316 10.3452 373.218 11.1601 372.75C11.9861 372.277 13.0064 372.629 13.439 373.539C14.2829 375.311 15.2058 377.062 16.1818 378.746C16.2144 378.803 16.2443 378.861 16.2709 378.92Z" fill="url(#paint19_linear_90_299)"/>
<path d="M6.58672 329.481C6.73485 329.809 6.79712 330.188 6.74512 330.577C6.61846 331.523 6.50812 332.488 6.41577 333.446C6.31812 334.465 5.48695 335.202 4.55994 335.092C3.63263 334.982 2.95911 334.067 3.05857 333.047C3.155 332.04 3.27139 331.025 3.4044 330.029C3.53983 329.015 4.39761 328.316 5.31962 328.467C5.88855 328.56 6.34881 328.955 6.58672 329.481Z" fill="url(#paint20_linear_90_299)"/>
</g>
<g opacity="0.3">
<path d="M33.3561 281.219C33.7191 282.022 33.5096 283.017 32.8258 283.553C32.1178 284.107 31.4085 284.688 30.718 285.277C29.9824 285.905 28.9218 285.758 28.3488 284.948C27.7733 284.134 27.9076 282.972 28.6427 282.344C29.3699 281.723 30.1169 281.111 30.8622 280.527C31.6207 279.933 32.675 280.129 33.2175 280.964C33.2707 281.046 33.3166 281.131 33.3561 281.219Z" fill="url(#paint21_linear_90_299)"/>
<path d="M130.467 307.972C130.813 308.737 131.149 309.512 131.474 310.296C131.861 311.23 131.487 312.33 130.639 312.753C129.791 313.177 128.784 312.76 128.402 311.83C127.652 310.021 126.836 308.249 125.968 306.544C125.514 305.647 125.802 304.518 126.615 304.019C127.429 303.52 128.458 303.841 128.914 304.737C129.451 305.791 129.973 306.88 130.467 307.972ZM134.612 319.477C134.654 319.57 134.689 319.668 134.718 319.771C135.261 321.756 135.734 323.787 136.123 325.809C136.316 326.812 135.733 327.796 134.821 328.006C133.909 328.216 133.01 327.572 132.82 326.569C132.45 324.648 132.001 322.719 131.485 320.833C131.216 319.851 131.722 318.817 132.614 318.523C133.414 318.261 134.252 318.681 134.612 319.477ZM124.043 296.555C124.398 297.339 124.208 298.313 123.55 298.859C122.807 299.476 121.748 299.311 121.185 298.493C120.109 296.926 118.957 295.389 117.76 293.924C117.138 293.159 117.193 291.986 117.886 291.303C118.58 290.619 119.647 290.684 120.271 291.448C121.531 292.991 122.744 294.61 123.877 296.259C123.942 296.354 123.997 296.453 124.043 296.555ZM137.234 335.137C137.33 335.348 137.39 335.583 137.406 335.832C137.54 337.896 137.595 339.991 137.569 342.059C137.557 343.084 136.791 343.901 135.859 343.885C134.926 343.869 134.181 343.026 134.194 342C134.218 340.037 134.166 338.047 134.039 336.087C133.972 335.064 134.673 334.178 135.602 334.108C136.305 334.054 136.939 334.483 137.234 335.137ZM114.091 284.99C114.382 285.633 114.318 286.432 113.87 287.014C113.268 287.796 112.203 287.892 111.491 287.229C110.129 285.961 108.698 284.74 107.238 283.598C106.478 283.003 106.298 281.844 106.838 281.009C107.378 280.174 108.431 279.98 109.191 280.575C110.728 281.777 112.234 283.063 113.669 284.398C113.85 284.567 113.991 284.769 114.091 284.99ZM102.076 276.099C102.309 276.613 102.322 277.238 102.063 277.785C101.631 278.693 100.612 279.043 99.7852 278.567C98.1996 277.654 96.5609 276.804 94.9147 276.04C94.0543 275.642 93.6497 274.554 94.0108 273.608C94.3717 272.663 95.3609 272.222 96.2209 272.62C97.9536 273.424 99.678 274.319 101.346 275.28C101.674 275.469 101.923 275.76 102.076 276.099ZM88.5912 270.296C88.768 270.687 88.8211 271.147 88.7103 271.602C88.4698 272.591 87.5443 273.177 86.6436 272.91C84.9146 272.397 83.1478 271.959 81.3911 271.608C80.4738 271.424 79.863 270.459 80.028 269.449C80.1931 268.441 81.0701 267.772 81.9882 267.955C83.8366 268.325 85.6966 268.786 87.5157 269.326C88.0026 269.47 88.3829 269.835 88.5912 270.296ZM74.2837 267.861C74.4063 268.132 74.4702 268.439 74.4583 268.763C74.4204 269.787 73.6345 270.581 72.7031 270.537C70.9159 270.452 69.1059 270.45 67.3225 270.531C66.3911 270.574 65.6026 269.776 65.5617 268.754C65.5208 267.73 66.243 266.865 67.1744 266.822C69.0529 266.737 70.9592 266.739 72.8404 266.828C73.4781 266.859 74.0183 267.274 74.2837 267.861ZM59.8413 268.938C59.9102 269.091 59.9609 269.257 59.9902 269.432C60.1586 270.441 59.5514 271.407 58.6347 271.589C56.8798 271.938 55.1157 272.375 53.3904 272.887C52.4906 273.154 51.5628 272.564 51.3182 271.578C51.0731 270.588 51.6041 269.569 52.5039 269.302C54.3201 268.763 56.1774 268.304 58.0249 267.936C58.782 267.785 59.5145 268.216 59.8413 268.938ZM45.9839 273.476C45.9993 273.51 46.0136 273.545 46.0275 273.581C46.3914 274.525 45.9904 275.614 45.1321 276.011C43.9203 276.573 42.7105 277.182 41.5346 277.822C41.109 278.054 40.6865 278.291 40.2676 278.532C39.4419 279.006 38.4212 278.654 37.9881 277.745C37.533 276.835 37.8724 275.716 38.6973 275.241C39.1383 274.988 39.582 274.739 40.03 274.495C41.2668 273.822 42.5403 273.18 43.8147 272.59C44.6406 272.207 45.5894 272.603 45.9839 273.476Z" fill="url(#paint22_linear_90_299)"/>
<path d="M136.651 351.083C136.801 351.413 136.862 351.796 136.808 352.187C136.671 353.181 136.512 354.189 136.336 355.185C136.158 356.191 135.272 356.846 134.357 356.648C133.441 356.45 132.843 355.475 133.022 354.468C133.189 353.522 133.34 352.564 133.471 351.621C133.61 350.608 134.471 349.913 135.393 350.07C135.958 350.166 136.414 350.56 136.651 351.083Z" fill="url(#paint23_linear_90_299)"/>
</g>
<path d="M118.107 358.385C118.245 358.048 118.174 357.651 117.929 357.396L110.946 350.13C111.812 345.294 111.984 340.27 111.382 335.237L118.765 328.516C119.024 328.28 119.118 327.89 118.999 327.543L114.932 315.683C114.813 315.337 114.508 315.111 114.171 315.12L104.579 315.399C102.007 311.178 98.8596 307.523 95.302 304.511L96.1886 294C96.2196 293.632 96.0348 293.281 95.7281 293.128L85.2321 287.884C84.9251 287.731 84.5643 287.808 84.3333 288.077L77.7417 295.738C73.3417 294.773 68.7716 294.573 64.196 295.223L58.0655 287.088C57.8506 286.803 57.4949 286.699 57.1799 286.829L46.4032 291.272C46.0884 291.402 45.8834 291.738 45.8932 292.108L46.1697 302.656C42.3373 305.473 39.02 308.925 36.2897 312.83L26.7277 311.83C26.3927 311.795 26.0747 311.997 25.9361 312.334L21.1919 323.863C21.0532 324.2 21.1245 324.597 21.3692 324.851L28.3524 332.117C27.4857 336.953 27.3146 341.977 27.9166 347.01L20.5331 353.731C20.2741 353.967 20.1801 354.358 20.2988 354.704L24.3661 366.564C24.4849 366.911 24.7904 367.137 25.127 367.127L34.7197 366.848C37.291 371.069 40.4388 374.725 43.9966 377.736L43.1099 388.247C43.0786 388.616 43.2638 388.966 43.5705 389.119L54.0665 394.363C54.3732 394.516 54.7342 394.439 54.9653 394.171L61.5569 386.51C65.9569 387.474 70.5269 387.674 75.1026 387.025L81.2329 395.159C81.4477 395.444 81.8035 395.549 82.1185 395.419L92.8949 390.975C93.2099 390.845 93.4147 390.51 93.405 390.14L93.1285 379.592C96.9607 376.774 100.278 373.322 103.008 369.417L112.57 370.417C112.905 370.452 113.223 370.25 113.362 369.913L118.107 358.385Z" fill="url(#paint24_linear_90_299)"/>
<path opacity="0.7" d="M80.0188 335.486C82.5337 341.048 81.0317 347.953 76.2649 351.589C71.0248 355.586 63.7951 354.143 60.1473 348.373C58.3794 345.577 57.7071 342.195 58.2524 338.85C58.7975 335.504 60.4955 332.595 63.0339 330.659C68.274 326.662 75.5037 328.105 79.1516 333.875C79.4803 334.396 79.7695 334.934 80.0188 335.486ZM61.6925 345.434C61.8867 345.864 62.1103 346.28 62.3639 346.682C65.1605 351.106 70.7045 352.212 74.7213 349.148C78.7386 346.083 79.7338 339.991 76.9351 335.566C74.1387 331.142 68.5946 330.035 64.5776 333.1C62.6313 334.584 61.3294 336.814 60.9113 339.38C60.5717 341.465 60.8491 343.569 61.6925 345.434Z" fill="white"/>
<path opacity="0.7" d="M94.8843 327.098C95.3161 328.054 95.707 329.038 96.054 330.05C96.1633 330.368 96.2677 330.689 96.3678 331.011C96.8601 332.6 97.2369 334.228 97.4924 335.872C97.4958 335.895 97.4993 335.917 97.5029 335.939C97.5126 336.003 97.5221 336.067 97.5312 336.131C97.5498 336.254 97.5669 336.379 97.584 336.503C97.6285 336.829 97.4727 337.137 97.2179 337.276C97.1559 337.31 97.0879 337.334 97.0159 337.346C96.6471 337.405 96.3045 337.124 96.2486 336.719C95.9647 334.631 95.4739 332.563 94.7904 330.572C91.3987 320.677 83.712 313.907 74.9389 311.863C70.0593 310.724 64.8436 311.049 59.8432 313.111C58.9663 313.472 58.1126 313.88 57.285 314.331C51.715 317.366 47.3047 322.375 44.7077 328.687C41.7239 335.936 41.4894 344.037 44.047 351.495C49.3306 366.897 65.0049 374.724 78.9941 368.955C79.8568 368.6 80.6997 368.197 81.5194 367.75C85.0723 365.815 88.1987 363.044 90.6652 359.626C90.729 359.538 90.8071 359.47 90.8934 359.424C91.1202 359.3 91.4018 359.323 91.6135 359.508C91.9054 359.765 91.9562 360.23 91.7234 360.552C89.1339 364.14 85.8517 367.049 82.1216 369.081C81.2611 369.55 80.3764 369.972 79.4712 370.346C64.7836 376.402 48.3245 368.174 42.7831 352.016C40.0979 344.186 40.3444 335.683 43.4767 328.072C46.2031 321.446 50.833 316.187 56.6804 313.001C57.5494 312.528 58.4456 312.1 59.3658 311.72C66.4809 308.787 74.2152 309.078 81.1446 312.54C87.1786 315.554 91.973 320.66 94.8843 327.098Z" fill="white"/>
<g opacity="0.3">
<path d="M172.477 436.231C172.678 436.676 172.6 437.229 172.251 437.582C171.602 438.242 170.926 438.889 170.241 439.505C169.796 439.906 169.14 439.833 168.774 439.343C168.406 438.853 168.473 438.13 168.918 437.73C169.57 437.143 170.215 436.526 170.835 435.896C171.257 435.467 171.916 435.497 172.308 435.962C172.378 436.045 172.433 436.135 172.477 436.231Z" fill="url(#paint25_linear_90_299)"/>
<path d="M166.118 441.59C166.354 442.11 166.198 442.752 165.741 443.067C164.453 443.959 163.108 444.788 161.744 445.531C161.457 445.687 161.168 445.841 160.876 445.992C160.354 446.26 159.739 445.972 159.487 445.44C159.241 444.867 159.465 444.185 159.985 443.916C160.264 443.772 160.541 443.625 160.815 443.476C162.116 442.767 163.399 441.977 164.628 441.127C165.115 440.79 165.758 440.951 166.066 441.487C166.085 441.521 166.103 441.555 166.118 441.59ZM156.327 446.641C156.349 446.69 156.369 446.741 156.384 446.794C156.565 447.396 156.268 448.044 155.721 448.241C153.967 448.873 152.161 449.392 150.354 449.781C149.789 449.903 149.241 449.494 149.129 448.876C149.017 448.255 149.383 447.653 149.948 447.531C151.672 447.159 153.394 446.665 155.067 446.062C155.566 445.882 156.099 446.139 156.327 446.641ZM145.708 448.928C145.767 449.059 145.804 449.204 145.814 449.358C145.856 449.989 145.423 450.536 144.848 450.58C143.008 450.719 141.14 450.734 139.295 450.622C138.719 450.587 138.279 450.048 138.309 449.414C138.339 448.782 138.83 448.298 139.405 448.333C141.164 448.439 142.945 448.426 144.7 448.293C145.134 448.26 145.525 448.524 145.708 448.928ZM134.896 448.274C134.992 448.486 135.029 448.733 134.989 448.984C134.888 449.607 134.346 450.022 133.779 449.909C131.959 449.548 130.145 449.059 128.384 448.456C127.834 448.267 127.527 447.624 127.696 447.021C127.866 446.416 128.449 446.079 129 446.267C130.678 446.842 132.41 447.308 134.145 447.653C134.483 447.72 134.753 447.959 134.896 448.274ZM124.551 444.735C124.685 445.032 124.702 445.391 124.569 445.717C124.333 446.294 123.716 446.549 123.191 446.289C121.507 445.453 119.854 444.495 118.278 443.441C117.784 443.113 117.627 442.407 117.926 441.866C118.224 441.325 118.866 441.153 119.358 441.483C120.862 442.488 122.438 443.402 124.045 444.199C124.274 444.313 124.447 444.506 124.551 444.735ZM115.296 438.547C115.47 438.932 115.439 439.409 115.181 439.768C114.825 440.264 114.169 440.347 113.717 439.954C112.268 438.694 110.876 437.322 109.582 435.877C109.178 435.423 109.183 434.699 109.592 434.256C110.001 433.812 110.662 433.819 111.066 434.27C112.3 435.648 113.627 436.956 115.008 438.157C115.133 438.266 115.229 438.4 115.296 438.547ZM107.694 430.064C107.912 430.545 107.798 431.144 107.396 431.482C106.939 431.866 106.285 431.77 105.934 431.267C104.813 429.66 103.769 427.955 102.831 426.199C102.547 425.646 102.706 424.949 103.202 424.63C103.698 424.31 104.337 424.495 104.629 425.041C105.523 426.717 106.519 428.343 107.588 429.875C107.629 429.935 107.665 429.999 107.694 430.064ZM100.363 414.175C100.39 414.234 100.412 414.297 100.43 414.363C100.859 415.968 101.375 417.575 101.965 419.14C102.053 419.378 102.142 419.61 102.234 419.841C102.463 420.422 102.221 421.097 101.693 421.348C101.164 421.6 100.533 421.336 100.321 420.75C100.224 420.504 100.129 420.257 100.036 420.008C99.4208 418.373 98.8794 416.688 98.4299 415.005C98.2674 414.397 98.5831 413.761 99.1357 413.584C99.6277 413.426 100.142 413.686 100.363 414.175Z" fill="url(#paint26_linear_90_299)"/>
</g>
<g opacity="0.3">
<path d="M181.679 378.612C181.932 379.172 181.729 379.854 181.221 380.14C180.71 380.428 180.081 380.205 179.818 379.641C179.025 377.944 178.132 376.285 177.162 374.711C176.846 374.186 176.963 373.473 177.44 373.119C177.917 372.765 178.565 372.904 178.889 373.428C179.904 375.08 180.842 376.818 181.672 378.597C181.672 378.597 181.677 378.607 181.679 378.612ZM183.828 383.985C183.845 384.022 183.859 384.06 183.873 384.099C184.504 385.972 185.037 387.907 185.459 389.848C185.593 390.464 185.248 391.081 184.688 391.227C184.127 391.374 183.566 390.988 183.431 390.376C183.028 388.523 182.519 386.678 181.917 384.89C181.717 384.297 181.993 383.638 182.532 383.419C183.038 383.215 183.594 383.467 183.828 383.985ZM175.701 368.909C175.907 369.365 175.819 369.932 175.454 370.282C175.022 370.697 174.363 370.647 173.983 370.17C172.84 368.732 171.609 367.358 170.322 366.087C169.894 365.661 169.858 364.939 170.242 364.468C170.626 363.998 171.286 363.96 171.715 364.384C173.064 365.716 174.355 367.156 175.552 368.664C175.613 368.741 175.662 368.823 175.701 368.909ZM186.299 395.385C186.351 395.501 186.387 395.63 186.401 395.767C186.605 397.753 186.699 399.771 186.679 401.767C186.674 402.4 186.202 402.907 185.626 402.899C185.052 402.89 184.59 402.371 184.595 401.738C184.612 399.835 184.523 397.911 184.329 396.018C184.265 395.389 184.677 394.822 185.249 394.753C185.696 394.699 186.109 394.965 186.299 395.385ZM167.773 361.078C167.937 361.442 167.921 361.891 167.695 362.246C167.365 362.765 166.715 362.89 166.243 362.527C164.824 361.434 163.33 360.426 161.801 359.53C161.291 359.232 161.098 358.537 161.368 357.978C161.638 357.42 162.27 357.209 162.778 357.507C164.382 358.447 165.949 359.504 167.437 360.649C167.585 360.763 167.697 360.912 167.773 361.078ZM158.371 355.563C158.497 355.841 158.52 356.174 158.411 356.486C158.204 357.076 157.601 357.37 157.063 357.141C155.444 356.452 153.774 355.865 152.099 355.396C151.539 355.24 151.201 354.615 151.342 354.002C151.483 353.389 152.049 353.018 152.607 353.175C154.364 353.666 156.116 354.281 157.812 355.003C158.065 355.11 158.259 355.315 158.371 355.563ZM148.043 352.679C148.131 352.875 148.17 353.1 148.143 353.333C148.071 353.961 147.549 354.405 146.978 354.324C145.258 354.08 143.509 353.951 141.781 353.94C141.206 353.935 140.74 353.419 140.742 352.786C140.744 352.153 141.212 351.643 141.789 351.647C143.601 351.659 145.435 351.794 147.24 352.049C147.599 352.101 147.892 352.347 148.043 352.679Z" fill="url(#paint27_linear_90_299)"/>
<path d="M186.186 407.148C186.276 407.347 186.315 407.575 186.286 407.811C186.168 408.783 186.022 409.755 185.855 410.702C185.745 411.323 185.198 411.728 184.632 411.606C184.068 411.482 183.699 410.88 183.808 410.259C183.967 409.357 184.106 408.428 184.219 407.501C184.295 406.873 184.82 406.434 185.391 406.52C185.747 406.573 186.037 406.819 186.186 407.148Z" fill="url(#paint28_linear_90_299)"/>
</g>
<path d="M173.742 412.862C173.834 412.636 173.787 412.37 173.623 412.2L168.95 407.338C169.53 404.102 169.645 400.74 169.242 397.372L174.182 392.875C174.356 392.717 174.419 392.456 174.339 392.224L171.618 384.287C171.538 384.055 171.334 383.904 171.108 383.911L164.69 384.097C162.969 381.273 160.863 378.827 158.482 376.812L159.075 369.778C159.096 369.532 158.972 369.297 158.767 369.195L151.744 365.686C151.538 365.583 151.297 365.635 151.142 365.815L146.731 370.941C143.787 370.296 140.729 370.162 137.667 370.597L133.565 365.153C133.421 364.962 133.183 364.893 132.972 364.979L125.761 367.953C125.55 368.04 125.413 368.264 125.42 368.512L125.605 375.57C123.04 377.456 120.821 379.766 118.994 382.378L112.595 381.709C112.371 381.686 112.158 381.821 112.066 382.047L108.891 389.761C108.798 389.986 108.846 390.252 109.01 390.422L113.683 395.285C113.102 398.52 112.988 401.882 113.391 405.25L108.45 409.748C108.277 409.905 108.214 410.167 108.293 410.399L111.015 418.335C111.094 418.567 111.299 418.718 111.524 418.712L117.943 418.525C119.664 421.349 121.77 423.796 124.15 425.811L123.557 432.844C123.536 433.091 123.66 433.325 123.865 433.427L130.889 436.936C131.094 437.039 131.336 436.987 131.49 436.807L135.901 431.681C138.845 432.327 141.904 432.46 144.965 432.026L149.068 437.469C149.211 437.66 149.449 437.73 149.66 437.643L156.871 434.669C157.082 434.582 157.219 434.358 157.212 434.11L157.027 427.052C159.592 425.167 161.812 422.857 163.639 420.244L170.037 420.913C170.261 420.937 170.474 420.801 170.567 420.576L173.742 412.862Z" fill="url(#paint29_linear_90_299)"/>
<path opacity="0.7" d="M148.385 397.482C149.135 399.139 149.381 401.009 149.079 402.861C148.708 405.14 147.551 407.122 145.822 408.44C142.254 411.163 137.329 410.18 134.844 406.25C132.362 402.309 133.242 396.905 136.81 394.183C138.539 392.864 140.634 392.365 142.707 392.779C144.781 393.193 146.586 394.469 147.789 396.375C148.014 396.73 148.213 397.101 148.385 397.482ZM136.121 404.137C136.246 404.413 136.39 404.683 136.555 404.944C138.383 407.835 142.006 408.558 144.631 406.555C145.902 405.585 146.754 404.128 147.026 402.452C147.3 400.775 146.961 399.081 146.077 397.679C145.192 396.279 143.864 395.339 142.339 395.035C140.813 394.731 139.273 395.097 138.001 396.068C135.613 397.889 134.861 401.35 136.121 404.137Z" fill="white"/>
<path opacity="0.7" d="M158.739 391.659C159.033 392.309 159.299 392.981 159.537 393.674C160.01 395.05 160.356 396.481 160.565 397.929C160.574 397.994 160.583 398.059 160.592 398.124C160.661 398.628 160.42 399.104 160.027 399.319C159.931 399.371 159.826 399.408 159.715 399.426C159.145 399.518 158.617 399.083 158.53 398.458C158.346 397.104 158.028 395.765 157.586 394.479L157.586 394.479C157.562 394.408 157.537 394.337 157.512 394.267C156.441 391.233 154.724 388.606 152.524 386.555C151.33 385.441 149.992 384.498 148.537 383.753C148.525 383.747 148.513 383.741 148.501 383.735C148.464 383.716 148.429 383.698 148.392 383.68C144.119 381.545 139.35 381.366 134.962 383.175C134.394 383.408 133.842 383.672 133.306 383.964C129.7 385.929 126.846 389.172 125.164 393.258C123.232 397.952 123.081 403.195 124.737 408.023C126.393 412.847 129.658 416.686 133.93 418.821C138.204 420.956 142.973 421.136 147.36 419.327C147.919 419.097 148.464 418.836 148.995 418.547C151.295 417.294 153.319 415.5 154.915 413.288C155.014 413.152 155.135 413.046 155.268 412.975C155.618 412.784 156.053 412.819 156.38 413.105C156.83 413.5 156.908 414.22 156.55 414.716C154.763 417.192 152.499 419.199 149.926 420.601C149.332 420.925 148.722 421.216 148.097 421.474C143.188 423.498 137.852 423.297 133.071 420.908C128.291 418.519 124.636 414.234 122.786 408.828C120.933 403.426 121.102 397.56 123.264 392.308C125.145 387.737 128.339 384.109 132.374 381.911C132.973 381.585 133.591 381.289 134.226 381.027C143.729 377.11 154.307 381.856 158.739 391.659Z" fill="white"/>
<defs>
<linearGradient id="paint0_linear_90_299" x1="489.522" y1="584.213" x2="83.9811" y2="103.111" gradientUnits="userSpaceOnUse">
<stop stop-color="#DAE3FE"/>
<stop offset="1" stop-color="#E9EFFD"/>
</linearGradient>
<linearGradient id="paint1_linear_90_299" x1="291.486" y1="-0.186637" x2="-199.288" y2="850.346" gradientUnits="userSpaceOnUse">
<stop stop-color="#09005D"/>
<stop offset="1" stop-color="#1A0F91"/>
</linearGradient>
<linearGradient id="paint2_linear_90_299" x1="154.146" y1="-249.31" x2="171.276" y2="-82.4104" gradientUnits="userSpaceOnUse">
<stop stop-color="#4F52FF"/>
<stop offset="1" stop-color="#4042E2"/>
</linearGradient>
<linearGradient id="paint3_linear_90_299" x1="120.396" y1="109.06" x2="221.516" y2="109.06" gradientUnits="userSpaceOnUse">
<stop stop-color="#4F52FF"/>
<stop offset="1" stop-color="#4042E2"/>
</linearGradient>
<linearGradient id="paint4_linear_90_299" x1="303.309" y1="442.928" x2="242.025" y2="292.226" gradientUnits="userSpaceOnUse">
<stop stop-color="#FEBBBA"/>
<stop offset="1" stop-color="#FF928E"/>
</linearGradient>
<linearGradient id="paint5_linear_90_299" x1="304.169" y1="933.769" x2="99.2112" y2="-1354.41" gradientUnits="userSpaceOnUse">
<stop stop-color="#FEBBBA"/>
<stop offset="1" stop-color="#FF928E"/>
</linearGradient>
<linearGradient id="paint6_linear_90_299" x1="297.443" y1="201.519" x2="273.442" y2="201.519" gradientUnits="userSpaceOnUse">
<stop stop-color="#FEBBBA"/>
<stop offset="1" stop-color="#FF928E"/>
</linearGradient>
<linearGradient id="paint7_linear_90_299" x1="255.916" y1="447.255" x2="195.085" y2="358.104" gradientUnits="userSpaceOnUse">
<stop stop-color="#4F52FF"/>
<stop offset="1" stop-color="#4042E2"/>
</linearGradient>
<linearGradient id="paint8_linear_90_299" x1="307.358" y1="475.182" x2="239.561" y2="363.249" gradientUnits="userSpaceOnUse">
<stop stop-color="#4F52FF"/>
<stop offset="1" stop-color="#4042E2"/>
</linearGradient>
<linearGradient id="paint9_linear_90_299" x1="316.883" y1="196.162" x2="263.82" y2="264.801" gradientUnits="userSpaceOnUse">
<stop stop-color="#4F52FF"/>
<stop offset="1" stop-color="#4042E2"/>
</linearGradient>
<linearGradient id="paint10_linear_90_299" x1="271.231" y1="145.458" x2="254.185" y2="145.458" gradientUnits="userSpaceOnUse">
<stop stop-color="#FEBBBA"/>
<stop offset="1" stop-color="#FF928E"/>
</linearGradient>
<linearGradient id="paint11_linear_90_299" x1="469.319" y1="120.468" x2="398.847" y2="142.572" gradientUnits="userSpaceOnUse">
<stop stop-color="#FF928E"/>
<stop offset="1" stop-color="#FE7062"/>
</linearGradient>
<linearGradient id="paint12_linear_90_299" x1="171.221" y1="155.631" x2="321.907" y2="238.091" gradientUnits="userSpaceOnUse">
<stop stop-color="#FEBBBA"/>
<stop offset="1" stop-color="#FF928E"/>
</linearGradient>
<linearGradient id="paint13_linear_90_299" x1="156.572" y1="182.4" x2="307.258" y2="264.86" gradientUnits="userSpaceOnUse">
<stop stop-color="#FEBBBA"/>
<stop offset="1" stop-color="#FF928E"/>
</linearGradient>
<linearGradient id="paint14_linear_90_299" x1="242.84" y1="145.451" x2="278.066" y2="96.2473" gradientUnits="userSpaceOnUse">
<stop stop-color="#FEBBBA"/>
<stop offset="1" stop-color="#FF928E"/>
</linearGradient>
<linearGradient id="paint15_linear_90_299" x1="260.385" y1="109.221" x2="310.043" y2="170.885" gradientUnits="userSpaceOnUse">
<stop stop-color="#09005D"/>
<stop offset="1" stop-color="#1A0F91"/>
</linearGradient>
<linearGradient id="paint16_linear_90_299" x1="404.954" y1="-74.3646" x2="332.995" y2="179.432" gradientUnits="userSpaceOnUse">
<stop stop-color="#E1473D"/>
<stop offset="1" stop-color="#E9605A"/>
</linearGradient>
<linearGradient id="paint17_linear_90_299" x1="393.82" y1="-11.8093" x2="349.676" y2="113.61" gradientUnits="userSpaceOnUse">
<stop stop-color="#FF928E"/>
<stop offset="1" stop-color="#FE7062"/>
</linearGradient>
<linearGradient id="paint18_linear_90_299" x1="379.511" y1="-45.4787" x2="359.101" y2="143.718" gradientUnits="userSpaceOnUse">
<stop stop-color="#FF928E"/>
<stop offset="1" stop-color="#FE7062"/>
</linearGradient>
<linearGradient id="paint19_linear_90_299" x1="74.1795" y1="420.827" x2="26.8068" y2="329.632" gradientUnits="userSpaceOnUse">
<stop stop-color="#FF928E"/>
<stop offset="1" stop-color="#FE7062"/>
</linearGradient>
<linearGradient id="paint20_linear_90_299" x1="6.21367" y1="334.535" x2="3.3999" y2="329.118" gradientUnits="userSpaceOnUse">
<stop stop-color="#FF928E"/>
<stop offset="1" stop-color="#FE7062"/>
</linearGradient>
<linearGradient id="paint21_linear_90_299" x1="31.6666" y1="284.834" x2="29.7206" y2="281.088" gradientUnits="userSpaceOnUse">
<stop stop-color="#FF928E"/>
<stop offset="1" stop-color="#FE7062"/>
</linearGradient>
<linearGradient id="paint22_linear_90_299" x1="113.922" y1="355.492" x2="65.0796" y2="261.469" gradientUnits="userSpaceOnUse">
<stop stop-color="#FF928E"/>
<stop offset="1" stop-color="#FE7062"/>
</linearGradient>
<linearGradient id="paint23_linear_90_299" x1="136.201" y1="356.091" x2="133.422" y2="350.742" gradientUnits="userSpaceOnUse">
<stop stop-color="#FF928E"/>
<stop offset="1" stop-color="#FE7062"/>
</linearGradient>
<linearGradient id="paint24_linear_90_299" x1="82.2237" y1="292.949" x2="42.2046" y2="432.844" gradientUnits="userSpaceOnUse">
<stop stop-color="#FF928E"/>
<stop offset="1" stop-color="#FE7062"/>
</linearGradient>
<linearGradient id="paint25_linear_90_299" x1="171.207" y1="439.042" x2="169.817" y2="436.366" gradientUnits="userSpaceOnUse">
<stop stop-color="#FF928E"/>
<stop offset="1" stop-color="#FE7062"/>
</linearGradient>
<linearGradient id="paint26_linear_90_299" x1="144.292" y1="454.606" x2="117.908" y2="403.816" gradientUnits="userSpaceOnUse">
<stop stop-color="#FF928E"/>
<stop offset="1" stop-color="#FE7062"/>
</linearGradient>
<linearGradient id="paint27_linear_90_299" x1="180.178" y1="405.858" x2="149.792" y2="347.364" gradientUnits="userSpaceOnUse">
<stop stop-color="#FF928E"/>
<stop offset="1" stop-color="#FE7062"/>
</linearGradient>
<linearGradient id="paint28_linear_90_299" x1="186.021" y1="411.132" x2="183.916" y2="407.081" gradientUnits="userSpaceOnUse">
<stop stop-color="#FF928E"/>
<stop offset="1" stop-color="#FE7062"/>
</linearGradient>
<linearGradient id="paint29_linear_90_299" x1="157.11" y1="345.73" x2="117.136" y2="474.093" gradientUnits="userSpaceOnUse">
<stop stop-color="#FF928E"/>
<stop offset="1" stop-color="#FE7062"/>
</linearGradient>
</defs>
</svg>
