<svg width="442" height="443" viewBox="0 0 442 443" fill="none" xmlns="http://www.w3.org/2000/svg">
<path d="M389.874 380.607C380.991 389.959 372.585 395.991 365.944 400.756C287.88 456.768 195.509 440.44 175.878 436.453C146.888 430.565 90.8523 419.184 50.3395 371.542C-10.9533 299.463 -1.40911 185.904 46.1338 110.943C54.8301 97.2311 100.766 21.1279 194.132 8.92344C250.636 1.5374 316.501 16.4342 364.199 56.3956C464.321 140.278 457.194 309.735 389.874 380.607Z" fill="url(#paint0_linear_8_96062)"/>
<g opacity="0.3">
<path d="M141.167 98.6371C142.071 98.3641 143.054 98.8127 143.428 99.7026C144.245 101.648 144.99 103.659 145.642 105.678C145.96 106.66 145.421 107.714 144.439 108.031C144.427 108.034 144.415 108.038 144.404 108.041C143.432 108.335 142.4 107.797 142.086 106.827C141.467 104.909 140.759 102.999 139.982 101.15C139.582 100.199 140.03 99.1032 140.981 98.7036C141.043 98.6777 141.105 98.656 141.167 98.6371ZM145.758 114.255C145.828 114.234 145.901 114.217 145.974 114.204C146.99 114.023 147.961 114.701 148.141 115.717C148.511 117.804 148.796 119.928 148.987 122.029C149.08 123.057 148.326 123.962 147.295 124.059C146.267 124.152 145.358 123.395 145.265 122.367C145.083 120.37 144.813 118.353 144.461 116.369C144.294 115.427 144.864 114.525 145.758 114.255ZM146.797 130.496C146.996 130.435 147.209 130.408 147.429 130.418C148.459 130.469 149.254 131.345 149.204 132.376C149.101 134.489 148.904 136.624 148.62 138.721C148.48 139.744 147.539 140.459 146.517 140.322C145.494 140.183 144.778 139.241 144.916 138.219C145.187 136.227 145.373 134.2 145.471 132.194C145.511 131.383 146.062 130.717 146.797 130.496ZM144.178 146.564C144.507 146.464 144.867 146.455 145.223 146.555C146.216 146.834 146.794 147.866 146.515 148.86C145.941 150.897 145.272 152.935 144.527 154.915C144.164 155.88 143.087 156.368 142.12 156.006C141.155 155.642 140.666 154.565 141.03 153.599C141.737 151.718 142.373 149.783 142.917 147.847C143.097 147.209 143.587 146.742 144.178 146.564ZM138.041 161.644C138.503 161.505 139.017 161.543 139.474 161.792C140.381 162.285 140.716 163.42 140.223 164.326C139.214 166.181 138.111 168.019 136.945 169.788C136.378 170.65 135.219 170.889 134.357 170.32C133.495 169.752 133.257 168.594 133.825 167.732C134.933 166.05 135.981 164.303 136.94 162.54C137.185 162.091 137.587 161.781 138.041 161.644ZM128.722 174.991C129.32 174.81 129.994 174.933 130.498 175.375C131.273 176.057 131.349 177.237 130.668 178.013C129.271 179.601 127.789 181.15 126.262 182.614C125.517 183.329 124.334 183.304 123.62 182.559C122.906 181.815 122.93 180.632 123.675 179.917C125.126 178.525 126.534 177.055 127.861 175.545C128.099 175.273 128.399 175.088 128.722 174.991ZM64.4611 199.049C64.7088 198.974 64.9756 198.949 65.2485 198.986C67.2383 199.253 69.2667 199.436 71.2768 199.53C72.3076 199.579 73.104 200.454 73.0553 201.484C73.0072 202.515 72.1322 203.311 71.1013 203.263C68.9843 203.164 66.848 202.971 64.7526 202.691C63.7296 202.553 63.0115 201.613 63.1486 200.59C63.2488 199.84 63.7813 199.254 64.4611 199.049ZM116.684 185.933C117.426 185.708 118.26 185.964 118.739 186.628C119.344 187.465 119.155 188.633 118.319 189.237C116.604 190.475 114.814 191.654 113 192.741C112.112 193.266 110.967 192.983 110.436 192.097C109.906 191.212 110.194 190.065 111.08 189.534C112.803 188.503 114.502 187.383 116.131 186.207C116.304 186.083 116.491 185.991 116.684 185.933ZM80.7356 199.377C80.8537 199.341 80.9769 199.316 81.1045 199.304C83.1048 199.119 85.1235 198.844 87.1045 198.488C88.1205 198.307 89.0917 198.982 89.2738 199.998C89.4554 201.014 88.782 201.989 87.7644 202.167C85.6797 202.541 83.5555 202.83 81.4508 203.026C80.4232 203.121 79.5124 202.365 79.4172 201.338C79.3335 200.439 79.9027 199.629 80.7356 199.377ZM102.504 193.912C103.407 193.639 104.389 194.086 104.764 194.974C105.165 195.924 104.72 197.02 103.77 197.423C101.823 198.245 99.8149 198.994 97.8005 199.648C97.7882 199.652 97.7753 199.656 97.7626 199.66C96.7921 199.953 95.7611 199.418 95.446 198.449C95.1269 197.468 95.6636 196.413 96.6454 196.095C98.5586 195.472 100.466 194.761 102.315 193.979C102.378 193.954 102.441 193.931 102.504 193.912Z" fill="#7D97F4"/>
<path d="M51.6672 196.137C52.0194 196.03 52.4066 196.026 52.7833 196.149C53.6995 196.447 54.6371 196.73 55.5705 196.993C56.5638 197.272 57.1437 198.304 56.8644 199.297C56.5858 200.291 55.554 200.871 54.5602 200.591C53.5784 200.315 52.5924 200.017 51.6281 199.703C50.6469 199.385 50.1095 198.33 50.4286 197.349C50.6251 196.744 51.1012 196.308 51.6672 196.137Z" fill="#7D97F4"/>
</g>
<g opacity="0.3">
<path d="M8.66813 158.766C9.53151 158.505 10.4804 158.902 10.8874 159.739C11.3081 160.606 11.7542 161.478 12.2132 162.331C12.702 163.24 12.3615 164.374 11.4528 164.862C10.5401 165.353 9.41046 165.01 8.92181 164.102C8.43872 163.203 7.96879 162.285 7.52552 161.372C7.07463 160.444 7.46174 159.326 8.38986 158.875C8.48092 158.831 8.57421 158.795 8.66813 158.766Z" fill="#7D97F4"/>
<path d="M52.9908 57.2697C53.8139 57.0211 54.6443 56.7855 55.4818 56.5631C56.4793 56.2985 57.5027 56.892 57.7677 57.8894C58.0326 58.8867 57.4351 59.9151 56.4418 60.1756C54.509 60.6893 52.6013 61.28 50.7507 61.9397C49.7772 62.2847 48.7098 61.7791 48.3631 60.8072C48.0165 59.8345 48.5238 58.7655 49.4959 58.4192C50.6406 58.011 51.8166 57.6243 52.9908 57.2697ZM65.1672 54.6874C65.2671 54.6572 65.3712 54.6348 65.4786 54.6215C67.5474 54.3634 69.6502 54.1901 71.7284 54.107C72.7593 54.0656 73.6289 54.8681 73.6703 55.8987C73.7115 56.9301 72.908 57.8025 71.878 57.8407C69.9042 57.92 67.9068 58.0849 65.9406 58.3295C64.9167 58.4574 63.9832 57.7306 63.8555 56.707C63.7412 55.7898 64.3117 54.9458 65.1672 54.6874ZM40.4846 62.355C41.328 62.1002 42.2596 62.4722 42.6808 63.2822C43.1569 64.1982 42.8003 65.3261 41.8847 65.8025C40.133 66.7128 38.3968 67.7108 36.7235 68.7698C35.8504 69.3201 34.6968 69.0617 34.1452 68.1897C33.5934 67.3171 33.8533 66.1628 34.7254 65.6112C36.4874 64.4965 38.3163 63.4454 40.1608 62.4864C40.2665 62.4315 40.375 62.3882 40.4846 62.355ZM81.189 54.4678C81.416 54.3992 81.6598 54.3735 81.9103 54.3978C83.9835 54.6004 86.0729 54.8942 88.1203 55.2707C89.135 55.4574 89.8063 56.4313 89.6196 57.4461C89.433 58.4617 88.4597 59.1331 87.444 58.9459C85.4999 58.5884 83.5159 58.3094 81.547 58.1171C80.5199 58.0171 79.7687 57.1027 79.8691 56.0757C79.9448 55.2994 80.4857 54.6802 81.189 54.4678ZM27.1852 71.2674C27.8769 71.0585 28.6578 71.2633 29.154 71.8508C29.82 72.6393 29.7206 73.8184 28.9321 74.4844C27.4244 75.7571 25.9502 77.1129 24.5498 78.5134C23.8201 79.2432 22.6369 79.2436 21.9071 78.5132C21.1776 77.7834 21.1776 76.601 21.9073 75.8712C23.3815 74.3965 24.9336 72.9693 26.521 71.6288C26.7217 71.4592 26.9484 71.3388 27.1852 71.2674ZM16.1631 82.8826C16.7162 82.7156 17.3387 82.8066 17.8342 83.1822C18.6563 83.8062 18.8171 84.9783 18.1931 85.8004C16.9968 87.3772 15.853 89.0226 14.7935 90.6908C14.2414 91.563 13.0872 91.8208 12.2146 91.2671C11.3433 90.7137 11.0858 89.5593 11.6387 88.6877C12.7537 86.9319 13.9574 85.2005 15.2165 83.5415C15.4641 83.2149 15.7984 82.9927 16.1631 82.8826ZM7.93545 96.6243C8.35604 96.4972 8.82263 96.5172 9.25369 96.7147C10.1918 97.1443 10.6038 98.2536 10.1739 99.1917C9.3484 100.993 8.59005 102.847 7.9199 104.706C7.56992 105.676 6.50013 106.18 5.52807 105.829C4.55743 105.479 4.05435 104.409 4.40449 103.438C5.11002 101.482 5.90788 99.5295 6.77634 97.6347C7.00892 97.1275 7.44014 96.774 7.93545 96.6243ZM2.90095 111.832C3.19239 111.744 3.50906 111.726 3.82795 111.794C4.83745 112.008 5.48174 113 5.26725 114.01C4.8557 115.946 4.52253 117.922 4.27694 119.883C4.14859 120.907 3.21318 121.633 2.19082 121.505C1.16657 121.377 0.440578 120.442 0.568927 119.418C0.827689 117.353 1.17847 115.272 1.61159 113.234C1.75866 112.543 2.26968 112.023 2.90095 111.832ZM1.32728 127.781C1.49117 127.731 1.66474 127.704 1.84433 127.701C2.87604 127.688 3.72372 128.514 3.73673 129.545C3.76259 131.52 3.87269 133.52 4.06514 135.49C4.1654 136.517 3.41086 137.43 2.38692 137.531C1.35981 137.631 0.445815 136.879 0.345547 135.852C0.143108 133.778 0.0268155 131.673 0.00016197 129.594C-0.0109437 128.742 0.550206 128.015 1.32728 127.781ZM3.29425 143.674C3.3309 143.663 3.36834 143.654 3.4061 143.644C4.4102 143.407 5.41717 144.028 5.65451 145.032C5.99006 146.45 6.37321 147.874 6.79363 149.265C6.94578 149.769 7.10364 150.27 7.26578 150.768C7.58546 151.75 7.04938 152.805 6.06812 153.124C5.08098 153.467 4.03246 152.908 3.71261 151.927C3.54175 151.403 3.37627 150.876 3.21603 150.346C2.77387 148.882 2.37074 147.384 2.01805 145.893C1.78928 144.927 2.3563 143.958 3.29425 143.674Z" fill="#7D97F4"/>
<path d="M96.9078 57.7968C97.2635 57.6894 97.6541 57.6865 98.0331 57.8114C98.9936 58.1288 99.9656 58.4728 100.922 58.8334C101.888 59.1974 102.376 60.2754 102.011 61.2409C101.647 62.2065 100.57 62.695 99.6039 62.3304C98.6953 61.988 97.7721 61.6614 96.8602 61.3598C95.8806 61.0365 95.3487 59.9795 95.6725 58.9995C95.8711 58.3989 96.3452 57.9665 96.9078 57.7968Z" fill="#7D97F4"/>
</g>
<path d="M100.761 79.2734C100.452 79.0652 100.045 79.0758 99.7473 79.3L91.2582 85.6967C86.6176 83.9346 81.6626 82.8993 76.5577 82.7067L71.2386 73.5119C71.052 73.1892 70.6814 73.0207 70.3157 73.092L57.8011 75.5298C57.4352 75.6012 57.1552 75.8968 57.1032 76.2653L55.6244 86.7844C50.9651 88.8793 46.7608 91.6982 43.1212 95.0737L32.8515 92.3312C32.4915 92.2351 32.1102 92.378 31.9021 92.6869L24.7767 103.26C24.5684 103.569 24.5792 103.976 24.8035 104.274L31.2001 112.763C29.4378 117.403 28.4029 122.358 28.2103 127.463L19.0153 132.783C18.6927 132.969 18.5243 133.34 18.5953 133.705L21.0332 146.22C21.1044 146.586 21.3998 146.866 21.7688 146.918L32.2879 148.397C34.3826 153.056 37.2015 157.26 40.577 160.9L37.8346 171.17C37.7386 171.529 37.8814 171.911 38.1903 172.119L48.7633 179.244C49.0724 179.453 49.4793 179.442 49.7769 179.218L58.2661 172.821C62.9066 174.583 67.8617 175.618 72.9666 175.811L78.2859 185.006C78.4724 185.328 78.8429 185.497 79.2088 185.426L91.7235 182.988C92.0894 182.917 92.3694 182.621 92.4213 182.252L93.9001 171.733C98.5595 169.639 102.764 166.819 106.403 163.444L116.673 166.186C117.033 166.282 117.414 166.14 117.622 165.831L124.748 155.258C124.956 154.949 124.945 154.542 124.721 154.244L118.324 145.755C120.087 141.114 121.122 136.159 121.314 131.054L130.509 125.735C130.832 125.549 131 125.178 130.929 124.812L128.491 112.298C128.42 111.932 128.124 111.652 127.755 111.6L117.236 110.121C115.142 105.462 112.323 101.258 108.947 97.6178L111.69 87.3483C111.786 86.9883 111.643 86.607 111.334 86.3987L100.761 79.2734Z" fill="#91B3FA"/>
<path d="M71.0643 116.987C77.0447 115.181 83.6224 117.986 86.3592 123.804C89.3671 130.199 86.6117 137.848 80.2173 140.856C77.1194 142.314 73.6396 142.477 70.4196 141.317C67.1989 140.157 64.6224 137.812 63.1657 134.714C60.1577 128.319 62.9131 120.67 69.3076 117.662C69.884 117.391 70.4715 117.166 71.0643 116.987ZM77.5841 138.673C78.046 138.534 78.5002 138.36 78.9447 138.151C83.8476 135.845 85.9599 129.979 83.654 125.077C81.3477 120.174 75.4831 118.059 70.5797 120.368C65.6768 122.673 63.5645 128.539 65.8704 133.441C66.9878 135.817 68.9628 137.614 71.4324 138.504C73.4395 139.227 75.5785 139.279 77.5841 138.673Z" fill="#BDD0FB"/>
<path d="M65.461 99.3434C66.4881 99.0331 67.5368 98.7728 68.6044 98.5648C68.9403 98.4991 69.2776 98.4393 69.6155 98.3844C71.2821 98.115 72.9676 97.9787 74.6457 97.9774C74.6686 97.9774 74.6914 97.9775 74.7142 97.9773C74.7791 97.9776 74.844 97.9778 74.9091 97.9787C75.0355 97.9794 75.162 97.9817 75.2881 97.984C75.6201 97.9905 75.8973 98.2124 75.9888 98.5142C76.0111 98.5875 76.022 98.6658 76.0206 98.7464C76.0125 99.1591 75.6704 99.4857 75.2584 99.4783C73.1347 99.4358 70.9923 99.6224 68.8906 100.032C58.4496 102.064 50.3247 109.313 46.6898 118.545C44.6675 123.68 44.0348 129.429 45.1663 135.236C45.3644 136.254 45.6126 137.255 45.9089 138.234C47.9011 144.827 52.0656 150.487 57.8543 154.388C64.5032 158.869 72.4995 160.493 80.3692 158.96C96.6223 155.792 107.258 140.002 104.094 123.756C103.899 122.755 103.653 121.767 103.36 120.796C102.089 116.59 99.9115 112.71 96.9709 109.44C96.8949 109.356 96.8417 109.259 96.8113 109.157C96.7302 108.889 96.8043 108.585 97.0269 108.385C97.3348 108.11 97.8062 108.133 98.0827 108.441C101.17 111.874 103.456 115.948 104.791 120.363C105.099 121.382 105.356 122.419 105.561 123.47C108.884 140.526 97.7056 157.105 80.6554 160.427C72.3933 162.037 63.9994 160.332 57.0192 155.628C50.942 151.533 46.5704 145.59 44.4785 138.669C44.1679 137.641 43.9074 136.59 43.6989 135.522C42.0896 127.259 43.7938 118.865 48.4977 111.885C52.5936 105.806 58.5379 101.435 65.461 99.3434Z" fill="#BDD0FB"/>
<g opacity="0.3">
<path d="M187.97 33.0597C188.448 32.9153 188.982 33.0941 189.269 33.5338C189.805 34.3538 190.324 35.2013 190.81 36.0528C191.126 36.6061 190.934 37.3105 190.38 37.6273C189.827 37.9462 189.122 37.7507 188.806 37.1975C188.343 36.3862 187.848 35.5783 187.337 34.7955C186.988 34.2628 187.138 33.5476 187.672 33.1981C187.766 33.1365 187.867 33.0908 187.97 33.0597Z" fill="#7D97F4"/>
<path d="M192.124 40.9056C192.684 40.7364 193.292 41.0155 193.522 41.5665C194.171 43.1235 194.748 44.7319 195.235 46.3459C195.338 46.6857 195.437 47.0278 195.533 47.3721C195.704 47.9868 195.306 48.6097 194.732 48.795C194.118 48.9663 193.482 48.6075 193.31 47.9943C193.218 47.6652 193.124 47.3383 193.025 47.0135C192.56 45.4738 192.011 43.9399 191.392 42.455C191.146 41.8664 191.425 41.1911 192.012 40.9454C192.05 40.9305 192.087 40.9168 192.124 40.9056ZM195.346 52.4478C195.398 52.4321 195.452 52.4191 195.507 52.4107C196.138 52.3155 196.726 52.7489 196.822 53.3792C197.129 55.4011 197.313 57.4601 197.369 59.4978C197.386 60.1353 196.88 60.6649 196.247 60.6831C195.609 60.7002 195.079 60.1987 195.061 59.5613C195.008 57.617 194.832 55.6534 194.54 53.7249C194.453 53.1505 194.805 52.6111 195.346 52.4478ZM195.672 64.4263C195.812 64.384 195.963 64.3681 196.117 64.3825C196.752 64.4441 197.215 65.0092 197.154 65.6435C196.955 67.6757 196.628 69.7182 196.179 71.7127C196.039 72.3354 195.424 72.7251 194.8 72.5852C194.178 72.4455 193.787 71.8278 193.927 71.2063C194.355 69.3041 194.668 67.3574 194.856 65.4192C194.903 64.9397 195.238 64.5574 195.672 64.4263ZM193.043 76.119C193.272 76.0498 193.524 76.0515 193.766 76.1374C194.366 76.353 194.678 77.0144 194.462 77.6141C193.771 79.5397 192.954 81.4381 192.033 83.2586C191.745 83.8272 191.05 84.0536 190.482 83.7671C189.913 83.4798 189.686 82.7857 189.973 82.2161C190.851 80.4816 191.63 78.6696 192.29 76.834C192.418 76.4761 192.705 76.2211 193.043 76.119ZM187.639 86.8148C187.958 86.7183 188.317 86.7607 188.616 86.9611C189.145 87.3157 189.286 88.0325 188.932 88.5622C187.794 90.2588 186.541 91.9018 185.206 93.4446C184.79 93.9283 184.061 93.9802 183.579 93.5631C183.097 93.146 183.044 92.4168 183.46 91.9353C184.733 90.4628 185.929 88.8962 187.014 87.2766C187.169 87.0461 187.392 86.8892 187.639 86.8148ZM179.803 95.8735C180.217 95.7485 180.685 95.8627 180.994 96.2049C181.421 96.6775 181.384 97.407 180.911 97.8346C179.395 99.2039 177.779 100.492 176.108 101.66C175.583 102.025 174.866 101.898 174.501 101.376C174.135 100.854 174.263 100.134 174.785 99.7687C176.378 98.654 177.918 97.427 179.364 96.1216C179.495 96.0033 179.645 95.9213 179.803 95.8735ZM169.993 102.74C170.511 102.583 171.084 102.809 171.346 103.305C171.644 103.868 171.429 104.567 170.865 104.865C169.065 105.817 167.182 106.669 165.268 107.397C164.667 107.614 164.004 107.323 163.778 106.727C163.552 106.131 163.852 105.465 164.447 105.238C166.274 104.545 168.07 103.733 169.786 102.825C169.854 102.789 169.923 102.761 169.993 102.74ZM152.882 108.061C152.946 108.042 153.013 108.028 153.082 108.02C154.753 107.822 156.442 107.53 158.104 107.15C158.356 107.094 158.603 107.036 158.848 106.975C159.467 106.824 160.092 107.201 160.245 107.82C160.398 108.44 160.02 109.084 159.4 109.217C159.138 109.281 158.876 109.344 158.612 109.402C156.876 109.798 155.105 110.105 153.353 110.312C152.719 110.386 152.146 109.934 152.071 109.301C152.005 108.737 152.357 108.22 152.882 108.061Z" fill="#7D97F4"/>
</g>
<g opacity="0.3">
<path d="M132.469 13.2876C133.072 13.1055 133.712 13.4421 133.903 14.0448C134.095 14.652 133.758 15.3012 133.15 15.493C131.321 16.0716 129.511 16.7667 127.771 17.5593C127.192 17.8166 126.506 17.5682 126.242 16.9875C125.978 16.4068 126.234 15.7229 126.814 15.4584C128.639 14.6282 130.536 13.8986 132.454 13.2922C132.459 13.2908 132.464 13.2892 132.469 13.2876ZM138.195 11.8488C138.235 11.8367 138.275 11.827 138.317 11.8191C140.291 11.4464 142.308 11.1904 144.312 11.0573C144.948 11.0159 145.498 11.4961 145.54 12.1321C145.583 12.7691 145.097 13.3173 144.465 13.3609C142.553 13.4875 140.629 13.7321 138.744 14.087C138.118 14.2055 137.515 13.7932 137.397 13.1672C137.286 12.5813 137.639 12.0169 138.195 11.8488ZM121.746 18.1749C122.236 18.0268 122.783 18.2198 123.063 18.6765C123.396 19.2188 123.226 19.9294 122.683 20.263C121.047 21.2683 119.458 22.3802 117.961 23.5708C117.46 23.966 116.736 23.8843 116.34 23.3847C115.943 22.8863 116.026 22.1596 116.525 21.7629C118.095 20.5154 119.76 19.3494 121.476 18.2967C121.562 18.2432 121.653 18.2029 121.746 18.1749ZM149.961 11.0758C150.087 11.0379 150.221 11.0208 150.36 11.0284C152.367 11.1413 154.388 11.38 156.365 11.7376C156.992 11.8507 157.409 12.4512 157.296 13.0788C157.182 13.7042 156.581 14.121 155.955 14.0088C154.069 13.6684 152.144 13.4412 150.229 13.333C149.593 13.2968 149.106 12.7517 149.142 12.1155C149.17 11.6182 149.51 11.2121 149.961 11.0758ZM112.523 25.5089C112.914 25.3907 113.357 25.4843 113.668 25.7908C114.123 26.2385 114.128 26.9691 113.681 27.4232C112.337 28.7874 111.063 30.2484 109.894 31.767C109.505 32.2731 108.78 32.3661 108.275 31.9769C107.77 31.5879 107.676 30.8629 108.065 30.3579C109.291 28.7665 110.627 27.234 112.035 25.8032C112.176 25.6608 112.345 25.5628 112.523 25.5089ZM105.329 34.8414C105.628 34.751 105.963 34.7819 106.252 34.9534C106.8 35.2788 106.981 35.987 106.656 36.535C105.676 38.1862 104.788 39.911 104.016 41.6606C103.758 42.2446 103.076 42.5084 102.494 42.2509C101.911 41.9937 101.647 41.313 101.904 40.7302C102.713 38.8953 103.644 37.0871 104.671 35.357C104.824 35.0987 105.063 34.9218 105.329 34.8414ZM100.577 45.6297C100.787 45.5661 101.018 45.5613 101.244 45.6307C101.854 45.8149 102.199 46.4595 102.015 47.0698C101.457 48.9065 101.009 50.7938 100.682 52.6786C100.572 53.3051 99.9747 53.727 99.347 53.6175C98.7189 53.5082 98.2984 52.9112 98.4074 52.2825C98.7512 50.3065 99.2212 48.3268 99.8047 46.4C99.9214 46.016 100.22 45.7374 100.577 45.6297Z" fill="#7D97F4"/>
<path d="M161.615 13.1842C161.828 13.1198 162.062 13.1163 162.291 13.1874C163.234 13.4806 164.173 13.8033 165.082 14.1457C165.678 14.3706 165.979 15.0365 165.755 15.633C165.528 16.2275 164.864 16.5296 164.267 16.306C163.401 15.979 162.505 15.6716 161.605 15.3912C160.996 15.202 160.656 14.5547 160.846 13.9464C160.964 13.5669 161.261 13.2913 161.615 13.1842Z" fill="#7D97F4"/>
</g>
<path d="M165.008 27.7341C164.801 27.5948 164.529 27.6019 164.33 27.752L158.649 32.0323C155.544 30.853 152.228 30.1604 148.812 30.0315L145.253 23.8789C145.128 23.6629 144.88 23.5501 144.635 23.5979L136.261 25.2292C136.016 25.2769 135.829 25.4746 135.794 25.7214L134.804 32.7603C131.687 34.162 128.873 36.0484 126.438 38.3071L119.566 36.472C119.325 36.4078 119.07 36.5033 118.93 36.7101L114.163 43.7851C114.023 43.9919 114.03 44.2644 114.18 44.4633L118.461 50.1438C117.281 53.2491 116.589 56.5649 116.46 59.9807L110.307 63.5401C110.092 63.6649 109.979 63.9129 110.026 64.1576L111.658 72.5318C111.705 72.7766 111.903 72.9642 112.15 72.9987L119.189 73.9883C120.59 77.1061 122.477 79.9193 124.736 82.3548L122.901 89.2269C122.836 89.4678 122.932 89.7229 123.139 89.8622L130.214 94.6301C130.42 94.7696 130.693 94.7623 130.892 94.6122L136.573 90.3318C139.678 91.5112 142.994 92.2037 146.409 92.3325L149.969 98.4854C150.094 98.7011 150.341 98.8141 150.586 98.7663L158.961 97.1349C159.205 97.0873 159.393 96.8897 159.427 96.6426L160.417 89.6037C163.535 88.2022 166.348 86.3157 168.784 84.0569L175.655 85.8919C175.896 85.9563 176.152 85.8607 176.291 85.6539L181.059 78.579C181.198 78.3723 181.191 78.0999 181.041 77.9008L176.761 72.2202C177.94 69.115 178.632 65.7993 178.761 62.3834L184.914 58.824C185.13 58.6993 185.243 58.4512 185.195 58.2064L183.564 49.8322C183.516 49.5874 183.319 49.4001 183.072 49.3652L176.033 48.3757C174.631 45.258 172.745 42.4448 170.486 40.0092L172.321 33.1371C172.385 32.8963 172.29 32.6412 172.083 32.5017L165.008 27.7341Z" fill="#91B3FA"/>
<path d="M145.104 52.8188C146.886 52.2805 148.786 52.3268 150.569 52.969C152.763 53.7593 154.518 55.3567 155.51 57.467C157.559 61.8212 155.682 67.0314 151.327 69.0817C146.962 71.1256 141.76 69.253 139.711 64.8976C138.718 62.7873 138.607 60.4169 139.397 58.2237C140.187 56.0294 141.785 54.2744 143.896 53.2822C144.29 53.0975 144.694 52.9425 145.104 52.8188ZM149.464 67.3311C149.762 67.2413 150.055 67.129 150.345 66.9934C153.548 65.4854 154.929 61.653 153.422 58.449C152.692 56.8976 151.401 55.7215 149.787 55.1411C148.173 54.5598 146.431 54.6434 144.878 55.3715C143.326 56.1016 142.15 57.3927 141.569 59.0057C140.988 60.6202 141.07 62.3636 141.8 63.9161C143.171 66.8303 146.468 68.2362 149.464 67.3311Z" fill="#BDD0FB"/>
<path d="M141.219 40.5325C141.919 40.3214 142.634 40.1442 143.365 40.0009C144.818 39.7175 146.301 39.5816 147.777 39.5973C147.843 39.5984 147.909 39.5997 147.976 39.6008C148.488 39.6106 148.916 39.9536 149.058 40.4196C149.092 40.5329 149.109 40.6536 149.107 40.778C149.094 41.4151 148.566 41.9187 147.93 41.9082C146.552 41.8805 145.165 42.0015 143.808 42.2668L143.807 42.2669C143.733 42.2812 143.658 42.2968 143.584 42.312C140.377 42.9686 137.455 44.4 135.017 46.4552C133.693 47.5708 132.512 48.8719 131.506 50.3353C131.498 50.3472 131.49 50.3591 131.482 50.371C131.457 50.408 131.432 50.4438 131.407 50.4805C128.507 54.785 127.456 59.9615 128.448 65.0562C128.576 65.7157 128.737 66.363 128.929 66.9974C130.219 71.2655 132.915 74.9295 136.662 77.4556C140.967 80.3562 146.143 81.4063 151.237 80.4138C156.328 79.42 160.735 76.504 163.637 72.2002C166.537 67.8957 167.589 62.7192 166.596 57.6244C166.47 56.976 166.311 56.3365 166.121 55.7085C165.298 52.9854 163.889 50.4737 161.985 48.3573C161.868 48.2267 161.786 48.0772 161.739 47.9195C161.614 47.5053 161.728 47.0362 162.072 46.7276C162.547 46.3027 163.275 46.3394 163.702 46.8144C165.832 49.1826 167.409 51.9934 168.33 55.0387C168.543 55.7422 168.72 56.4572 168.862 57.1823C169.972 62.8831 168.796 68.6741 165.55 73.4902C162.305 78.3052 157.383 81.5723 151.679 82.6792C145.979 83.7899 140.188 82.6146 135.372 79.3681C131.179 76.5433 128.163 72.4436 126.72 67.6685C126.506 66.9597 126.326 66.2346 126.182 65.4975C124.034 54.4622 130.68 43.7162 141.219 40.5325Z" fill="#BDD0FB"/>
<mask id="mask0_8_96062" style="mask-type:luminance" maskUnits="userSpaceOnUse" x="10" y="131" width="426" height="313">
<path d="M435.813 131.323H10.2128V443.001H435.813V131.323Z" fill="white"/>
</mask>
<g mask="url(#mask0_8_96062)">
<path d="M400.756 653.671C366.721 616.365 282.944 535.139 190.925 501.421C183.268 498.615 177.039 492.889 173.512 485.537L159.746 456.842C159.746 456.842 92.6478 441.118 51.3065 484.406C51.3065 484.406 53.8257 525.582 105.75 540.634C154.221 554.685 297.851 611.739 382.567 675.67C384.51 677.136 387.206 677.205 389.129 675.713C395.865 670.488 400.084 663.968 401.879 659.373C402.64 657.424 402.166 655.216 400.756 653.671Z" fill="url(#paint1_linear_8_96062)"/>
<path d="M44.0133 483.856C44.0133 483.856 57.7015 489.845 81.1677 478.999C104.634 468.152 168.44 467.07 168.44 467.07C168.44 467.07 147.769 389.707 193.704 334.359C193.704 334.359 230.702 403.609 256.702 413.944L268.348 414.479V365.075C268.348 365.075 258.472 304.089 196.001 258.546L176.55 241.015C176.55 241.015 108.155 227.226 61.6437 308.814C15.1327 390.402 44.0133 483.856 44.0133 483.856Z" fill="url(#paint2_linear_8_96062)"/>
<path d="M272.279 270.53C272.93 267.102 273.175 259.083 264.903 249.308C253.837 236.23 239.639 242.898 239.639 242.898C227.06 249.942 221.746 272.944 221.746 272.944L235.046 265.845C237.061 271.697 256.702 278.006 256.702 278.006L256.812 277.964C257.002 290.687 256.694 327.792 247.671 353.6C244.136 363.71 236.946 382.494 260.686 414.685L273.765 414.15C273.765 414.15 303.074 364.399 272.279 270.53Z" fill="url(#paint3_linear_8_96062)"/>
<path d="M205.793 195.113L169.371 246.541C167.003 249.884 167.326 254.417 170.127 257.407C175.034 262.645 183.309 270.026 192.23 271.711C195 272.235 197.818 271.072 199.357 268.71L218.727 238.977C218.727 238.977 222.435 192.27 205.793 195.113Z" fill="url(#paint4_linear_8_96062)"/>
<path d="M229.979 161.684C230.586 162.493 250.29 226.384 250.29 226.384L213.57 236.859L185.898 179.079C185.898 179.079 219.818 148.143 229.979 161.684Z" fill="url(#paint5_linear_8_96062)"/>
<path d="M200.472 188.564L212.159 218.83C212.414 219.49 212.765 220.1 213.205 220.653C215.167 223.115 220.873 228.915 227.191 222.708C231.978 218.006 236.49 213.683 240.789 211.523C244.576 209.619 249.164 211.695 250.372 215.758C252.182 221.849 255.032 232.308 256.52 242.276C257.058 245.879 254.698 249.283 251.133 250.029C243.658 251.593 230.614 253.876 219.186 253.608C216.652 253.549 214.378 252.055 213.254 249.783C209.025 241.234 198.403 220.013 194.406 214.359C190.731 209.162 182.433 209.192 178.203 209.59C176.239 209.775 174.302 209.118 172.863 207.768C169.49 204.601 164.97 198.217 171.407 190.287C173.645 187.529 173.458 183.608 170.994 181.05C167.432 177.352 164.481 171.448 170.107 164.033C176.068 156.175 184.126 156.601 189.557 158.16C192.206 158.921 194.908 157.76 196.647 155.623C197.154 155 197.874 154.524 198.891 154.36C202.21 153.825 204.761 151.272 204.855 147.912C204.996 142.945 207.14 137.173 215.334 134.359C231.348 128.859 241.88 144.177 243.217 155.798C244.555 167.419 226.854 172.395 216.346 171.914C209.064 171.581 203.693 178.26 201.082 182.391C199.912 184.241 199.685 186.524 200.472 188.564Z" fill="url(#paint6_linear_8_96062)"/>
<path d="M198.957 225.805C198.957 225.805 195.758 205.657 187.315 204.911C178.873 204.165 170.886 211.318 179.581 222.426C190.396 236.243 198.957 225.805 198.957 225.805Z" fill="url(#paint7_linear_8_96062)"/>
<path d="M107.576 248.484C107.576 248.484 34.1595 295.309 18.0869 349.672C2.01438 404.035 37.9863 414.731 72.2362 419.547L74.8137 378.035C74.8137 378.035 50.8206 378.035 66.1262 355.345C81.4319 332.654 122.562 317.527 122.562 317.527C122.562 317.527 226.773 219.2 107.576 248.484Z" fill="url(#paint8_linear_8_96062)"/>
<path d="M74.8137 378.981C74.3936 378.981 64.4773 378.908 61.1342 372.62C58.8528 368.328 60.2681 362.338 65.3426 354.816C80.6433 332.133 120.544 317.261 122.236 316.639C122.726 316.459 123.27 316.711 123.449 317.2C123.629 317.69 123.378 318.234 122.888 318.414C122.479 318.565 81.8667 333.7 66.9104 355.873C62.2597 362.768 60.8777 368.102 62.8018 371.728C65.6077 377.015 74.7224 377.09 74.8146 377.09C75.3363 377.091 75.7592 377.514 75.7592 378.036C75.7581 378.558 75.3353 378.981 74.8137 378.981Z" fill="url(#paint9_linear_8_96062)"/>
<path d="M72.2363 419.546C72.2363 419.546 61.5112 401.819 75.6362 380.639L170.451 396.337C170.451 396.337 215.836 388.657 218.007 388.813C220.177 388.969 249.798 407.214 249.798 407.214C249.798 407.214 248.803 409.33 241.754 408.939C234.705 408.549 239.332 409.792 239.332 409.792L239.077 413.353C239.077 413.353 234.17 414.477 230.234 410.29C226.299 406.103 215.358 404.076 215.358 404.076C215.358 404.076 192.102 421.259 169.258 412.945L72.2363 419.546Z" fill="url(#paint10_linear_8_96062)"/>
<path d="M210.19 718.639C209.447 718.639 208.693 718.486 207.967 718.167C205.11 716.908 203.79 713.515 205.019 710.589L323.126 429.352C324.355 426.427 327.664 425.076 330.525 426.333C333.382 427.592 334.701 430.985 333.472 433.911L215.365 715.148C214.449 717.331 212.372 718.639 210.19 718.639Z" fill="url(#paint11_linear_8_96062)"/>
<path d="M343.241 718.638C341.059 718.638 338.982 717.331 338.065 715.148L219.958 433.911C218.729 430.985 220.049 427.592 222.906 426.333C225.761 425.074 229.075 426.425 230.305 429.352L348.412 710.589C349.641 713.515 348.321 716.908 345.464 718.167C344.739 718.486 343.984 718.638 343.241 718.638Z" fill="url(#paint12_linear_8_96062)"/>
<path d="M430.604 420.954C430.776 419.211 430.542 417.408 429.967 416.038C429.392 414.668 428.536 413.875 427.633 413.875H121.598C120.41 413.875 119.304 415.065 118.664 417.033C118.023 419 117.938 421.473 118.436 423.593L121.752 437.702C122.512 440.933 124.157 443.001 125.968 443.001H425.533C427.218 443.001 428.665 440.653 428.985 437.403L430.604 420.954Z" fill="url(#paint13_linear_8_96062)"/>
</g>
<path d="M298.233 81.2653C258.168 100.393 231.846 140.199 262.958 138.341C321.368 134.853 281.945 167.385 312.664 166.428C343.383 165.471 390.934 158.919 422.047 126.679C453.16 94.4387 422.917 86.7331 410.306 87.9812C368.785 92.0906 423.732 21.3516 298.233 81.2653Z" fill="#BDD0FB"/>
<path d="M284.66 182.269C284.744 186.805 288.082 194.252 295.579 194.114C303.075 193.976 311.891 186.305 311.807 181.768C311.724 177.231 305.579 173.665 298.082 173.804C290.586 173.942 284.576 177.732 284.66 182.269Z" fill="#BDD0FB"/>
<path d="M273.407 200.553C273.447 202.75 275.379 204.496 277.722 204.453C280.065 204.41 284.699 202.074 284.659 199.878C284.618 197.681 281.712 195.485 279.369 195.528C277.026 195.571 273.366 198.357 273.407 200.553Z" fill="#BDD0FB"/>
<path d="M359.886 117.303C359.825 116.542 359.048 115.883 357.731 115.355C359.162 114.566 359.953 113.72 359.886 112.891C359.684 110.382 351.738 108.975 342.137 109.749C332.537 110.523 324.919 113.185 325.121 115.694C325.182 116.455 325.96 117.114 327.276 117.642C325.846 118.431 325.054 119.277 325.121 120.106C325.182 120.867 325.96 121.526 327.276 122.054C325.846 122.843 325.054 123.688 325.121 124.517C325.182 125.278 325.96 125.937 327.276 126.465C325.846 127.254 325.054 128.1 325.121 128.929C325.211 130.039 326.817 130.932 329.409 131.517C329.375 132.337 329.394 133.236 329.475 134.229C329.85 138.853 335.051 142.478 341.93 142.478C348.809 142.478 354.763 137.535 354.83 132.896C354.847 131.76 354.798 130.759 354.696 129.87C357.987 128.771 359.991 127.428 359.886 126.126C359.825 125.365 359.048 124.706 357.731 124.178C359.162 123.389 359.953 122.543 359.886 121.714C359.825 120.953 359.048 120.294 357.731 119.766C359.162 118.978 359.953 118.132 359.886 117.303Z" fill="url(#paint14_linear_8_96062)"/>
<path d="M337.695 132.516C334.844 132.516 332.235 132.306 330.08 131.894C329.955 131.87 329.873 131.749 329.897 131.624C329.921 131.499 330.041 131.417 330.166 131.441C333.539 132.086 338.044 132.229 342.852 131.841C346.785 131.524 350.464 130.89 353.49 130.006C353.612 129.971 353.74 130.041 353.776 130.163C353.811 130.285 353.741 130.413 353.619 130.449C350.563 131.341 346.853 131.981 342.889 132.301C341.103 132.445 339.358 132.516 337.695 132.516Z" fill="url(#paint15_linear_8_96062)"/>
<path d="M337.743 128.1C334.039 128.1 330.728 127.752 328.393 127.087C328.271 127.052 328.2 126.925 328.235 126.802C328.269 126.68 328.397 126.609 328.52 126.644C331.847 127.591 337.204 127.885 342.851 127.43C348.437 126.979 353.647 125.846 356.787 124.397C356.902 124.344 357.04 124.395 357.093 124.51C357.146 124.626 357.096 124.763 356.98 124.816C353.793 126.286 348.526 127.435 342.889 127.889C341.13 128.031 339.397 128.1 337.743 128.1Z" fill="url(#paint16_linear_8_96062)"/>
<path d="M337.696 123.692C333.696 123.692 330.196 123.283 327.84 122.506C327.719 122.466 327.653 122.336 327.693 122.215C327.733 122.094 327.863 122.028 327.984 122.068C331.263 123.149 336.82 123.504 342.851 123.018C348.437 122.568 353.646 121.434 356.787 119.986C356.902 119.933 357.04 119.983 357.093 120.099C357.146 120.214 357.096 120.351 356.98 120.405C353.793 121.874 348.525 123.023 342.889 123.478C341.102 123.622 339.356 123.692 337.696 123.692Z" fill="url(#paint17_linear_8_96062)"/>
<path d="M337.727 119.278C334.554 119.278 331.668 119.022 329.425 118.523C329.3 118.496 329.222 118.373 329.249 118.248C329.277 118.124 329.401 118.045 329.525 118.073C332.898 118.823 337.756 119.017 342.851 118.606C348.387 118.16 353.57 117.039 356.716 115.607C356.831 115.554 356.968 115.605 357.021 115.721C357.074 115.837 357.023 115.974 356.907 116.026C353.715 117.479 348.475 118.615 342.889 119.065C341.123 119.208 339.386 119.278 337.727 119.278Z" fill="url(#paint18_linear_8_96062)"/>
<path d="M318.678 95.0336C317.512 90.9039 315.531 87.0444 312.864 83.6829C307.149 76.4801 297.825 61.8317 296.678 41.8392C295.008 12.7593 320.799 -1.79972 344.333 0.176765C367.868 2.15325 391.09 19.6764 388.548 46.7294C386.983 63.3753 377.666 76.0014 370.729 83.2524C366.325 87.857 363.182 93.4966 361.481 99.6375C359.4 107.154 354.445 116.521 342.67 117.092C327.433 117.831 321.104 103.628 318.678 95.0336Z" fill="url(#paint19_linear_8_96062)"/>
<path d="M346.562 111.292L354.797 57.7336C354.967 56.6272 355.512 55.884 356.013 56.0739C356.515 56.2638 356.783 57.3147 356.613 58.4212C356.609 58.4507 356.603 58.487 356.598 58.5161L347.218 111.577C347.147 111.976 346.944 112.228 346.765 112.14C346.591 112.054 346.503 111.679 346.562 111.292Z" fill="url(#paint20_linear_8_96062)"/>
<path d="M338.014 111.718L329.78 58.1591C329.61 57.0527 329.065 56.3096 328.563 56.4995C328.062 56.6894 327.793 57.7403 327.963 58.8467C327.968 58.8762 327.974 58.9127 327.979 58.9416L337.359 112.003C337.429 112.402 337.632 112.653 337.811 112.565C337.985 112.48 338.074 112.104 338.014 111.718Z" fill="url(#paint21_linear_8_96062)"/>
<path opacity="0.79" d="M354.738 53.1354C354.529 52.7992 354.045 52.6734 353.657 52.8548L349.072 54.9972L347.48 50.4623C347.396 50.2257 347.201 50.0158 346.922 49.9013C346.395 49.6839 345.764 49.8783 345.513 50.3355L345.505 50.3503L341.734 57.2258L338.235 47.4384L338.229 47.4222C338.144 47.1833 337.963 46.9686 337.7 46.8249C337.113 46.5046 336.338 46.6573 335.969 47.1658L330.697 54.423C330.482 54.7205 330.556 55.119 330.883 55.3389C331.231 55.5736 331.733 55.519 332.004 55.2171L336.645 50.0395L340.824 59.3501L340.827 59.3573C340.894 59.5062 341.02 59.6362 341.195 59.7182C341.588 59.9018 342.077 59.7751 342.289 59.4352L346.322 52.9636L347.84 56.2369L347.853 56.2659C347.864 56.2894 347.877 56.3126 347.891 56.3354C348.1 56.6714 348.584 56.7969 348.971 56.6159L354.414 54.0729C354.802 53.8912 354.947 53.4718 354.738 53.1354Z" fill="white"/>
<path opacity="0.79" d="M370.909 76.105C370.743 76.105 370.575 76.0536 370.432 75.947C370.075 75.683 370.001 75.1802 370.266 74.8245C371.673 72.9282 372.963 70.9682 374.1 68.9988C374.321 68.6144 374.813 68.4835 375.196 68.7053C375.58 68.9268 375.711 69.4175 375.49 69.8011C374.322 71.8238 372.998 73.8357 371.554 75.781C371.396 75.993 371.154 76.105 370.909 76.105Z" fill="white"/>
<path opacity="0.79" d="M377.683 64.4791C377.576 64.4791 377.468 64.4577 377.364 64.4125C376.958 64.2359 376.771 63.7634 376.948 63.3568C385.678 43.251 378.143 26.3002 378.066 26.1312C377.882 25.7285 378.059 25.2524 378.462 25.0682C378.864 24.8836 379.341 25.0601 379.525 25.4631C379.605 25.6381 387.446 43.2088 378.42 63.996C378.288 64.2984 377.993 64.4791 377.683 64.4791Z" fill="white"/>
<path d="M371.619 260.76C365.119 245.27 341.574 198.307 299.923 212.811C299.31 213.025 299.381 213.917 300.019 214.036C309.203 215.738 343.235 224.334 370.526 261.374C370.97 261.978 371.909 261.451 371.619 260.76Z" fill="#91B3FA"/>
<path d="M371.262 261.729C361.898 252.903 334.017 218.758 296.99 234.362C296.583 234.534 296.665 235.136 297.104 235.183C306.255 236.15 351.689 241.905 371.084 262.478C371.598 263.023 371.808 262.243 371.262 261.729Z" fill="#91B3FA"/>
<path d="M370.383 257.853C369.494 246.177 364.276 202.096 335.887 193.004C335.68 192.937 335.503 193.173 335.629 193.35C339.049 198.174 363.937 233.819 369.94 257.924C370.007 258.192 370.404 258.129 370.383 257.853Z" fill="#91B3FA"/>
<path d="M373.208 271.231C373.458 271.366 373.701 271.044 373.5 270.843C368.485 265.847 347.722 247.488 321.36 256.529C291.494 266.77 343.787 255.268 373.208 271.231Z" fill="#91B3FA"/>
<path d="M372.519 262.084C372.459 262.957 371.218 263.061 371.024 262.207C367.875 248.361 361.201 210.176 380.626 200.464C403.617 188.968 375.642 216.805 372.519 262.084Z" fill="#91B3FA"/>
<path d="M371.178 261.987C374.441 253.484 387.022 227.083 413.202 241.348C413.644 241.589 413.5 242.261 412.998 242.293C407.107 242.663 387.523 245.204 372.022 262.491C371.65 262.905 370.978 262.508 371.178 261.987Z" fill="#91B3FA"/>
<path d="M371.884 264.121C373.088 258.871 379.351 248.34 411.219 257.985C411.41 258.043 411.36 258.33 411.161 258.31C404.899 257.659 383.739 256.221 373.368 265.028C372.701 265.593 371.689 264.973 371.884 264.121Z" fill="#91B3FA"/>
<path d="M381.056 407.834L381.067 406.758L381.067 405.603L381.05 403.289L381.02 398.661L380.885 389.403C380.803 383.232 380.681 377.062 380.55 370.893C380.269 358.557 379.916 346.226 379.352 333.907C378.799 321.59 378.038 309.283 376.853 297.025C376.245 290.897 375.513 284.784 374.526 278.714C373.557 272.645 372.308 266.606 370.279 260.808L370.83 260.583C372.037 263.445 373.094 266.381 373.89 269.381L374.512 271.626C374.707 272.377 374.875 273.134 375.058 273.888L375.597 276.153L376.075 278.429C377.306 284.508 378.257 290.638 379.004 296.785C379.769 302.931 380.335 309.097 380.839 315.265C381.31 321.434 381.664 327.611 381.972 333.788C382.239 339.967 382.439 346.147 382.584 352.328C382.68 358.51 382.775 364.691 382.742 370.872C382.735 377.053 382.642 383.234 382.487 389.412L382.158 398.678L381.955 403.311L381.816 405.627L381.739 406.786C381.705 407.176 381.696 407.536 381.62 408.022L381.056 407.834Z" fill="#91B3FA"/>
<path d="M391.83 298.697C396.184 288.32 411.956 256.86 439.858 266.577C440.269 266.719 440.221 267.318 439.794 267.397C433.641 268.537 410.844 274.296 392.562 299.109C392.264 299.513 391.635 299.16 391.83 298.697Z" fill="#91B3FA"/>
<path d="M392.068 299.346C398.341 293.433 417.019 270.56 441.823 281.013C442.095 281.128 442.04 281.532 441.746 281.563C435.616 282.21 405.18 286.066 392.188 299.847C391.843 300.213 391.703 299.69 392.068 299.346Z" fill="#91B3FA"/>
<path d="M392.658 296.749C393.253 288.928 396.748 259.398 415.766 253.307C415.905 253.263 416.024 253.421 415.939 253.539C413.648 256.771 396.976 280.649 392.955 296.796C392.91 296.977 392.643 296.934 392.658 296.749Z" fill="#91B3FA"/>
<path d="M390.765 305.711C390.597 305.802 390.435 305.586 390.569 305.451C393.929 302.105 407.838 289.806 425.498 295.862C445.504 302.723 410.474 295.018 390.765 305.711Z" fill="#91B3FA"/>
<path d="M391.226 299.584C391.267 300.169 392.098 300.238 392.228 299.666C394.337 290.391 398.808 264.811 385.796 258.305C370.394 250.604 389.134 269.252 391.226 299.584Z" fill="#91B3FA"/>
<path d="M392.125 299.519C389.939 293.823 381.511 276.136 363.973 285.693C363.677 285.854 363.774 286.304 364.11 286.325C368.056 286.574 381.175 288.276 391.56 299.856C391.809 300.134 392.259 299.867 392.125 299.519Z" fill="#91B3FA"/>
<path d="M391.652 300.949C390.845 297.431 386.65 290.377 365.302 296.838C365.174 296.877 365.207 297.069 365.34 297.055C369.535 296.62 383.71 295.657 390.658 301.556C391.104 301.935 391.782 301.519 391.652 300.949Z" fill="#91B3FA"/>
<path d="M387.54 408.021C387.477 407.632 387.475 407.37 387.449 407.076L387.394 406.209L387.296 404.476C387.231 403.322 387.19 402.167 387.145 401.012L386.916 394.082C386.764 389.462 386.752 384.84 386.722 380.218C386.713 375.595 386.704 370.971 386.794 366.348C386.89 361.726 387.002 357.102 387.201 352.481C387.408 347.859 387.653 343.238 387.978 338.62C388.334 334.004 388.745 329.39 389.316 324.789L389.76 321.341L390.286 317.901C390.657 315.611 391.048 313.323 391.546 311.052C391.773 309.913 392.03 308.779 392.319 307.652C392.463 307.089 392.595 306.524 392.748 305.962L393.234 304.285C393.862 302.046 394.665 299.846 395.61 297.718L396.16 297.943C395.459 300.128 394.824 302.324 394.362 304.574L394.004 306.255C393.894 306.817 393.804 307.385 393.702 307.95L393.394 309.642L393.126 311.343C392.949 312.477 392.771 313.61 392.63 314.751C392.481 315.891 392.301 317.024 392.18 318.168C391.907 320.45 391.664 322.737 391.426 325.024C390.545 334.183 389.905 343.376 389.452 352.583C389.004 361.791 388.696 371.01 388.46 380.234C388.337 384.846 388.303 389.46 388.206 394.074L388.121 400.996L388.1 404.457L388.093 406.187L388.103 407.833L387.54 408.021Z" fill="#91B3FA"/>
<path d="M360.867 317.89C355.304 308.809 336.272 281.7 314.555 295.419C314.236 295.621 314.385 296.178 314.76 296.183C320.148 296.255 340.396 297.969 360.326 318.398C360.651 318.73 361.116 318.295 360.867 317.89Z" fill="#91B3FA"/>
<path d="M360.785 318.541C354.422 313.986 334.514 295.452 315.54 309.361C315.332 309.514 315.452 309.886 315.705 309.867C320.985 309.478 347.317 308.15 360.776 319.034C361.133 319.322 361.155 318.806 360.785 318.541Z" fill="#91B3FA"/>
<path d="M359.814 316.187C357.883 308.905 349.541 281.613 332.415 278.969C332.29 278.95 332.219 279.118 332.311 279.216C334.831 281.892 353.235 301.701 359.573 316.28C359.643 316.443 359.86 316.36 359.814 316.187Z" fill="#91B3FA"/>
<path d="M363.046 324.334C363.204 324.393 363.301 324.162 363.163 324.057C359.723 321.448 345.763 312.113 332.001 320.708C316.41 330.446 344.496 317.46 363.046 324.334Z" fill="#91B3FA"/>
<path d="M361.537 318.628C361.61 319.187 360.923 319.388 360.709 318.87C357.237 310.462 348.796 287.056 358.563 278.795C370.123 269.016 357.753 289.668 361.537 318.628Z" fill="#91B3FA"/>
<path d="M360.769 318.714C361.568 312.982 365.431 294.92 381.945 301.075C382.223 301.179 382.224 301.62 381.945 301.695C378.668 302.572 367.933 306.319 361.307 318.939C361.147 319.242 360.72 319.064 360.769 318.714Z" fill="#91B3FA"/>
<path d="M361.429 319.985C361.465 316.535 363.708 309.194 382.864 311.808C382.979 311.824 382.986 312.011 382.871 312.019C379.259 312.292 367.148 313.696 362.377 320.396C362.07 320.826 361.423 320.545 361.429 319.985Z" fill="#91B3FA"/>
<path d="M384.078 409.817L383.536 406.969L382.96 404.05L381.777 398.216L379.333 386.566C378.501 382.687 377.643 378.814 376.759 374.947C375.897 371.076 375.007 367.212 374.086 363.355C372.234 355.646 370.214 347.98 368.027 340.373L367.194 337.525L366.327 334.688C365.747 332.798 365.158 330.91 364.504 329.047C363.192 325.325 361.832 321.61 360.004 318.118L360.514 317.812C361.596 319.499 362.568 321.26 363.417 323.069C363.853 323.97 364.286 324.873 364.662 325.797C365.057 326.715 365.438 327.639 365.793 328.571C367.257 332.286 368.558 336.058 369.723 339.867C372.062 347.484 373.969 355.213 375.781 362.955C376.676 366.829 377.541 370.709 378.375 374.596C379.176 378.489 379.951 382.387 380.698 386.29C381.444 390.193 382.178 394.098 382.831 398.018L383.805 403.899L384.263 406.844L384.477 408.32L384.58 409.061C384.609 409.312 384.651 409.532 384.669 409.875L384.078 409.817Z" fill="#91B3FA"/>
<path d="M370.282 371.207H395.649C397.312 371.207 398.542 373.712 398.168 376.337C396.545 387.727 394.6 399.284 390.62 411.016C389.885 413.182 388.485 414.541 386.959 414.541H378.681C377.178 414.541 375.799 413.203 375.087 411.059C371.898 401.461 368.83 390.019 367.316 377.033C366.963 374.011 368.383 371.207 370.282 371.207Z" fill="url(#paint22_linear_8_96062)"/>
<defs>
<linearGradient id="paint0_linear_8_96062" x1="496.272" y1="570.029" x2="109.52" y2="89.7065" gradientUnits="userSpaceOnUse">
<stop stop-color="#DAE3FE"/>
<stop offset="1" stop-color="#E9EFFD"/>
</linearGradient>
<linearGradient id="paint1_linear_8_96062" x1="379.934" y1="528.694" x2="142.374" y2="595.453" gradientUnits="userSpaceOnUse">
<stop stop-color="#CB236D"/>
<stop offset="1" stop-color="#4C246D"/>
</linearGradient>
<linearGradient id="paint2_linear_8_96062" x1="62.2851" y1="446.589" x2="239.859" y2="289.34" gradientUnits="userSpaceOnUse">
<stop stop-color="#4F52FF"/>
<stop offset="1" stop-color="#4042E2"/>
</linearGradient>
<linearGradient id="paint3_linear_8_96062" x1="221.746" y1="327.941" x2="286.362" y2="327.941" gradientUnits="userSpaceOnUse">
<stop stop-color="#FEBBBA"/>
<stop offset="1" stop-color="#FF928E"/>
</linearGradient>
<linearGradient id="paint4_linear_8_96062" x1="152.136" y1="261.563" x2="227.236" y2="218.048" gradientUnits="userSpaceOnUse">
<stop stop-color="#FEBBBA"/>
<stop offset="1" stop-color="#FF928E"/>
</linearGradient>
<linearGradient id="paint5_linear_8_96062" x1="218.206" y1="171.073" x2="217.755" y2="298.273" gradientUnits="userSpaceOnUse">
<stop stop-color="#FEBBBA"/>
<stop offset="1" stop-color="#FF928E"/>
</linearGradient>
<linearGradient id="paint6_linear_8_96062" x1="185.849" y1="225.555" x2="259.135" y2="170.565" gradientUnits="userSpaceOnUse">
<stop stop-color="#09005D"/>
<stop offset="1" stop-color="#1A0F91"/>
</linearGradient>
<linearGradient id="paint7_linear_8_96062" x1="176.579" y1="302.773" x2="187.905" y2="215.362" gradientUnits="userSpaceOnUse">
<stop stop-color="#FEBBBA"/>
<stop offset="1" stop-color="#FF928E"/>
</linearGradient>
<linearGradient id="paint8_linear_8_96062" x1="17.5312" y1="396.05" x2="195.105" y2="238.801" gradientUnits="userSpaceOnUse">
<stop stop-color="#4F52FF"/>
<stop offset="1" stop-color="#4042E2"/>
</linearGradient>
<linearGradient id="paint9_linear_8_96062" x1="109.024" y1="-76.5812" x2="96.1874" y2="235.777" gradientUnits="userSpaceOnUse">
<stop stop-color="#09005D"/>
<stop offset="1" stop-color="#1A0F91"/>
</linearGradient>
<linearGradient id="paint10_linear_8_96062" x1="157.556" y1="425.671" x2="160.499" y2="384.685" gradientUnits="userSpaceOnUse">
<stop stop-color="#FEBBBA"/>
<stop offset="1" stop-color="#FF928E"/>
</linearGradient>
<linearGradient id="paint11_linear_8_96062" x1="204.559" y1="572.251" x2="333.932" y2="572.251" gradientUnits="userSpaceOnUse">
<stop stop-color="#9CFFFB"/>
<stop offset="1" stop-color="#9BFFFA"/>
</linearGradient>
<linearGradient id="paint12_linear_8_96062" x1="219.499" y1="572.25" x2="348.872" y2="572.25" gradientUnits="userSpaceOnUse">
<stop stop-color="#9CFFFB"/>
<stop offset="1" stop-color="#9BFFFA"/>
</linearGradient>
<linearGradient id="paint13_linear_8_96062" x1="69.1707" y1="670.142" x2="438.076" y2="233.908" gradientUnits="userSpaceOnUse">
<stop stop-color="#09005D"/>
<stop offset="1" stop-color="#1A0F91"/>
</linearGradient>
<linearGradient id="paint14_linear_8_96062" x1="361.503" y1="105.509" x2="426.901" y2="45.0874" gradientUnits="userSpaceOnUse">
<stop stop-color="#09005D"/>
<stop offset="1" stop-color="#1A0F91"/>
</linearGradient>
<linearGradient id="paint15_linear_8_96062" x1="324.118" y1="171.481" x2="417.185" y2="-41.3945" gradientUnits="userSpaceOnUse">
<stop stop-color="#4F52FF"/>
<stop offset="1" stop-color="#4042E2"/>
</linearGradient>
<linearGradient id="paint16_linear_8_96062" x1="322.903" y1="170.95" x2="415.969" y2="-41.9252" gradientUnits="userSpaceOnUse">
<stop stop-color="#4F52FF"/>
<stop offset="1" stop-color="#4042E2"/>
</linearGradient>
<linearGradient id="paint17_linear_8_96062" x1="321.025" y1="170.129" x2="414.091" y2="-42.7459" gradientUnits="userSpaceOnUse">
<stop stop-color="#4F52FF"/>
<stop offset="1" stop-color="#4042E2"/>
</linearGradient>
<linearGradient id="paint18_linear_8_96062" x1="320.115" y1="169.73" x2="413.18" y2="-43.1434" gradientUnits="userSpaceOnUse">
<stop stop-color="#4F52FF"/>
<stop offset="1" stop-color="#4042E2"/>
</linearGradient>
<linearGradient id="paint19_linear_8_96062" x1="343.249" y1="29.0767" x2="337.634" y2="143.798" gradientUnits="userSpaceOnUse">
<stop stop-color="#FF928E"/>
<stop offset="1" stop-color="#FE7062"/>
</linearGradient>
<linearGradient id="paint20_linear_8_96062" x1="450.327" y1="-2.63551" x2="314.747" y2="116.098" gradientUnits="userSpaceOnUse">
<stop stop-color="#E1473D"/>
<stop offset="1" stop-color="#E9605A"/>
</linearGradient>
<linearGradient id="paint21_linear_8_96062" x1="442.678" y1="-11.3703" x2="307.098" y2="107.363" gradientUnits="userSpaceOnUse">
<stop stop-color="#E1473D"/>
<stop offset="1" stop-color="#E9605A"/>
</linearGradient>
<linearGradient id="paint22_linear_8_96062" x1="396.161" y1="447.514" x2="386.744" y2="397.859" gradientUnits="userSpaceOnUse">
<stop stop-color="#4F52FF"/>
<stop offset="1" stop-color="#4042E2"/>
</linearGradient>
</defs>
</svg>
