<svg width="136" height="36" viewBox="0 0 136 36" fill="none" xmlns="http://www.w3.org/2000/svg">
<path d="M7.04477 8.33808C6.146 8.09985 4.72293 6.55135 4.12375 5.80688C5.34708 4.96314 8.37796 4.03504 10.7148 7.07248C9.45649 7.66805 7.74382 8.16437 7.04477 8.33808Z" fill="#F8F9FA"/>
<path d="M13.0366 6.70023H14.1601C14.7593 1.69739 11.6635 0.148894 10.0407 0C8.69253 3.72235 11.9131 6.55134 13.0366 6.70023Z" fill="#F8F9FA"/>
<path d="M16.4819 6.62578H15.3585C15.0589 4.66535 15.4783 0.595576 19.5528 0C20.3017 4.46682 17.8301 6.22873 16.4819 6.62578Z" fill="#F8F9FA"/>
<path d="M21.9495 8.18917C20.9309 8.07005 19.2781 7.34544 18.5791 6.99802C21.3952 3.90102 24.2963 4.96313 25.3948 5.88131C24.3163 7.37025 22.9481 8.04028 22.3989 8.18917H21.9495Z" fill="#F8F9FA"/>
<path d="M9.59131 10.8693C13.2463 10.3928 16.2572 8.73512 17.3058 8.04028C16.407 7.74249 14.3349 7.89138 13.4111 7.96583C9.45649 8.38273 6.27082 10.0752 5.17232 10.8693C5.35208 10.631 5.69661 9.9759 5.8464 9.67811C3.20999 11.2575 1.70204 13.9593 1.27762 15.1127C4.09379 12.3135 7.99348 11.1174 9.59131 10.8693Z" fill="#F8F9FA"/>
<path d="M11.6136 12.1349C14.25 11.6584 18.1547 9.40515 19.7775 8.33808C20.3757 13.6155 11.641 17.6297 9.67543 18.5331L9.66621 18.5373C3.07517 21.5664 2.0266 26.2054 2.0266 28.811C0.753333 27.5454 0.503673 25.6098 0.603537 25.1631C1.74199 19.3264 8.21818 15.6835 11.314 14.5916C4.54318 15.0085 0.953061 19.8774 0.00435102 22.2597C-0.220343 14.4427 8.31804 12.7304 11.6136 12.1349Z" fill="#F8F9FA"/>
<path d="M23.073 9.38032H21.4252C20.3766 15.6339 11.9935 19.1177 11.314 19.4307C5.17232 22.2597 3.82416 25.6842 3.52456 27.2476C3.28489 28.4983 3.4247 30.4488 3.52456 31.2677C4.36342 32.4589 5.57178 33.2034 6.0711 33.4267C5.1124 25.6842 12.2627 21.5152 15.9576 20.3985C6.59538 26.0565 7.01481 33.1587 7.79375 34.1712C8.57269 35.1837 9.64124 35.3127 10.0407 35.2879C10.6998 32.5482 13.0366 30.3496 14.1601 29.481C26.1438 22.2597 25.0453 13.1771 23.073 9.38032Z" fill="#F8F9FA"/>
<path d="M11.6136 35.7346C30.0684 38.5933 34.1579 17.5695 25.1701 10.6459C28.3907 22.1108 19.1034 28.141 15.4334 30.5233C12.4974 32.4291 11.6635 34.7916 11.6136 35.7346Z" fill="#F8F9FA"/>
<path fill-rule="evenodd" clip-rule="evenodd" d="M39.8564 30.2176V5.78238H40.9792V30.2176H39.8564Z" fill="#F8F9FA"/>
<path d="M59.275 19.7101H53.8141L52.8081 22.4856H51.0836L55.6104 10.0763H57.4966L62.0054 22.4856H60.2809L59.275 19.7101ZM58.8079 18.385L56.5445 12.0818L54.2811 18.385H58.8079Z" fill="#F8F9FA"/>
<path d="M68.7745 12.4937C69.9721 12.4937 70.9421 12.8578 71.6846 13.586C72.4271 14.3023 72.7984 15.3409 72.7984 16.7018V22.4856H71.1816V16.9345C71.1816 15.9556 70.9361 15.2095 70.4451 14.6962C69.9541 14.1709 69.2835 13.9083 68.4332 13.9083C67.571 13.9083 66.8824 14.1769 66.3674 14.7141C65.8645 15.2513 65.613 16.0332 65.613 17.0599V22.4856H63.9783V12.6727H65.613V14.0695C65.9363 13.5681 66.3734 13.1801 66.9243 12.9055C67.4872 12.631 68.1039 12.4937 68.7745 12.4937Z" fill="#F8F9FA"/>
<path d="M77.4625 14.0158V19.7996C77.4625 20.2771 77.5643 20.6174 77.7679 20.8203C77.9715 21.0113 78.3248 21.1068 78.8278 21.1068H80.0313V22.4856H78.5583C77.6482 22.4856 76.9656 22.2767 76.5105 21.8589C76.0554 21.4411 75.8279 20.7547 75.8279 19.7996V14.0158H74.5525V12.6727H75.8279V10.2016H77.4625V12.6727H80.0313V14.0158H77.4625Z" fill="#F8F9FA"/>
<path d="M82.8562 11.079C82.5448 11.079 82.2814 10.9716 82.0658 10.7567C81.8503 10.5418 81.7425 10.2792 81.7425 9.96883C81.7425 9.65845 81.8503 9.39581 82.0658 9.18093C82.2814 8.96605 82.5448 8.85861 82.8562 8.85861C83.1556 8.85861 83.4071 8.96605 83.6107 9.18093C83.8262 9.39581 83.934 9.65845 83.934 9.96883C83.934 10.2792 83.8262 10.5418 83.6107 10.7567C83.4071 10.9716 83.1556 11.079 82.8562 11.079ZM83.6466 12.6727V22.4856H82.0119V12.6727H83.6466Z" fill="#F8F9FA"/>
<path d="M95.9173 13.6218C95.57 12.8936 95.0671 12.3325 94.4084 11.9386C93.7497 11.5327 92.9833 11.3297 92.1091 11.3297C91.2349 11.3297 90.4445 11.5327 89.7379 11.9386C89.0433 12.3325 88.4924 12.9055 88.0853 13.6576C87.6901 14.3978 87.4925 15.2573 87.4925 16.2362C87.4925 17.2151 87.6901 18.0746 88.0853 18.8148C88.4924 19.5549 89.0433 20.1279 89.7379 20.5338C90.4445 20.9278 91.2349 21.1247 92.1091 21.1247C93.3306 21.1247 94.3365 20.7606 95.1269 20.0324C95.9173 19.3042 96.3784 18.3193 96.5101 17.0778H91.5163V15.7527H98.2526V17.0062C98.1568 18.0328 97.8334 18.9759 97.2826 19.8354C96.7317 20.683 96.0072 21.3575 95.109 21.8589C94.2108 22.3484 93.2108 22.5931 92.1091 22.5931C90.9474 22.5931 89.8876 22.3245 88.9296 21.7873C87.9715 21.2381 87.211 20.4801 86.6482 19.5131C86.0973 18.5462 85.8219 17.4538 85.8219 16.2362C85.8219 15.0185 86.0973 13.9262 86.6482 12.9593C87.211 11.9804 87.9715 11.2223 88.9296 10.6851C89.8876 10.136 90.9474 9.86139 92.1091 9.86139C93.4384 9.86139 94.612 10.1897 95.6299 10.8463C96.6598 11.5028 97.4083 12.428 97.8754 13.6218H95.9173Z" fill="#F8F9FA"/>
<path d="M99.8032 17.5434C99.8032 16.5406 100.007 15.6632 100.414 14.9111C100.821 14.1471 101.378 13.5561 102.085 13.1383C102.803 12.7205 103.599 12.5116 104.474 12.5116C105.336 12.5116 106.084 12.6966 106.719 13.0667C107.354 13.4368 107.827 13.9023 108.138 14.4634V12.6727H109.791V22.4856H108.138V20.6592C107.815 21.2322 107.33 21.7097 106.683 22.0917C106.048 22.4618 105.306 22.6468 104.456 22.6468C103.582 22.6468 102.791 22.4319 102.085 22.0022C101.378 21.5724 100.821 20.9695 100.414 20.1936C100.007 19.4176 99.8032 18.5342 99.8032 17.5434ZM108.138 17.5613C108.138 16.8211 107.989 16.1765 107.689 15.6274C107.39 15.0782 106.983 14.6604 106.468 14.3739C105.965 14.0754 105.408 13.9262 104.797 13.9262C104.186 13.9262 103.629 14.0695 103.126 14.356C102.623 14.6425 102.222 15.0603 101.923 15.6095C101.623 16.1586 101.474 16.8032 101.474 17.5434C101.474 18.2955 101.623 18.952 101.923 19.5131C102.222 20.0623 102.623 20.4861 103.126 20.7845C103.629 21.071 104.186 21.2143 104.797 21.2143C105.408 21.2143 105.965 21.071 106.468 20.7845C106.983 20.4861 107.39 20.0623 107.689 19.5131C107.989 18.952 108.138 18.3014 108.138 17.5613Z" fill="#F8F9FA"/>
<path d="M116.038 22.6468C115.284 22.6468 114.607 22.5215 114.008 22.2708C113.41 22.0081 112.937 21.65 112.589 21.1964C112.242 20.7308 112.05 20.1995 112.014 19.6027H113.703C113.751 20.0921 113.978 20.492 114.386 20.8024C114.805 21.1128 115.35 21.268 116.02 21.268C116.643 21.268 117.134 21.1307 117.493 20.8561C117.853 20.5816 118.032 20.2354 118.032 19.8175C118.032 19.3878 117.841 19.0714 117.457 18.8685C117.074 18.6536 116.481 18.4447 115.679 18.2417C114.948 18.0507 114.35 17.8597 113.883 17.6687C113.428 17.4658 113.032 17.1733 112.697 16.7913C112.374 16.3973 112.212 15.884 112.212 15.2513C112.212 14.7499 112.362 14.2903 112.661 13.8725C112.961 13.4547 113.386 13.1264 113.937 12.8876C114.487 12.6369 115.116 12.5116 115.823 12.5116C116.912 12.5116 117.793 12.7862 118.463 13.3353C119.134 13.8844 119.493 14.6365 119.541 15.5915H117.906C117.871 15.0782 117.661 14.6664 117.278 14.356C116.906 14.0456 116.403 13.8904 115.769 13.8904C115.182 13.8904 114.715 14.0158 114.368 14.2664C114.02 14.5171 113.847 14.8454 113.847 15.2513C113.847 15.5736 113.948 15.8422 114.152 16.0571C114.368 16.2601 114.631 16.4272 114.942 16.5585C115.266 16.6779 115.709 16.8152 116.272 16.9704C116.978 17.1614 117.553 17.3524 117.996 17.5434C118.439 17.7224 118.817 17.997 119.128 18.3671C119.451 18.7372 119.619 19.2206 119.631 19.8175C119.631 20.3547 119.481 20.8382 119.182 21.268C118.882 21.6977 118.457 22.038 117.906 22.2887C117.368 22.5274 116.745 22.6468 116.038 22.6468Z" fill="#F8F9FA"/>
<path d="M123.573 14.4813C123.897 13.9202 124.376 13.4547 125.01 13.0846C125.657 12.7026 126.405 12.5116 127.256 12.5116C128.13 12.5116 128.92 12.7205 129.627 13.1383C130.345 13.5561 130.908 14.1471 131.315 14.9111C131.723 15.6632 131.926 16.5406 131.926 17.5434C131.926 18.5342 131.723 19.4176 131.315 20.1936C130.908 20.9695 130.345 21.5724 129.627 22.0022C128.92 22.4319 128.13 22.6468 127.256 22.6468C126.417 22.6468 125.675 22.4618 125.028 22.0917C124.394 21.7097 123.909 21.2381 123.573 20.6771V27.1414H121.939V12.6727H123.573V14.4813ZM130.256 17.5434C130.256 16.8032 130.106 16.1586 129.807 15.6095C129.507 15.0603 129.1 14.6425 128.585 14.356C128.082 14.0695 127.525 13.9262 126.914 13.9262C126.316 13.9262 125.759 14.0754 125.244 14.3739C124.741 14.6604 124.334 15.0842 124.022 15.6453C123.723 16.1944 123.573 16.8331 123.573 17.5613C123.573 18.3014 123.723 18.952 124.022 19.5131C124.334 20.0623 124.741 20.4861 125.244 20.7845C125.759 21.071 126.316 21.2143 126.914 21.2143C127.525 21.2143 128.082 21.071 128.585 20.7845C129.1 20.4861 129.507 20.0623 129.807 19.5131C130.106 18.952 130.256 18.2955 130.256 17.5434Z" fill="#F8F9FA"/>
<path d="M134.922 11.079C134.611 11.079 134.347 10.9716 134.132 10.7567C133.916 10.5418 133.808 10.2792 133.808 9.96883C133.808 9.65845 133.916 9.39581 134.132 9.18093C134.347 8.96605 134.611 8.85861 134.922 8.85861C135.222 8.85861 135.473 8.96605 135.677 9.18093C135.892 9.39581 136 9.65845 136 9.96883C136 10.2792 135.892 10.5418 135.677 10.7567C135.473 10.9716 135.222 11.079 134.922 11.079ZM135.713 12.6727V22.4856H134.078V12.6727H135.713Z" fill="#F8F9FA"/>
</svg>
