<svg width="24" height="24" viewBox="0 0 24 24" fill="none" xmlns="http://www.w3.org/2000/svg">
<rect width="24" height="24" rx="4" fill="#F8F9FA"/>
<path d="M6 7.61333C6 7.22852 6.13514 6.91106 6.40541 6.66095C6.67567 6.41082 7.02703 6.28577 7.45946 6.28577C7.88417 6.28577 8.2278 6.40889 8.49035 6.65517C8.76061 6.90914 8.89575 7.24006 8.89575 7.64796C8.89575 8.01737 8.76448 8.3252 8.50193 8.57148C8.23166 8.82545 7.87645 8.95243 7.43629 8.95243H7.42471C7 8.95243 6.65637 8.82545 6.39382 8.57148C6.13127 8.31751 6 7.99812 6 7.61333ZM6.15058 17.7143V10.0029H8.72201V17.7143H6.15058ZM10.1467 17.7143H12.7181V13.4084C12.7181 13.1391 12.749 12.9313 12.8108 12.785C12.9189 12.5234 13.083 12.3021 13.3031 12.1213C13.5232 11.9404 13.7992 11.85 14.1313 11.85C14.9961 11.85 15.4286 12.431 15.4286 13.5931V17.7143H18V13.293C18 12.154 17.7297 11.2901 17.1892 10.7013C16.6486 10.1126 15.9344 9.81823 15.0463 9.81823C14.0502 9.81823 13.2741 10.2454 12.7181 11.0996V11.1227H12.7066L12.7181 11.0996V10.0029H10.1467C10.1622 10.2492 10.1699 11.015 10.1699 12.3002C10.1699 13.5854 10.1622 15.3901 10.1467 17.7143Z" fill="#212529"/>
</svg>
