<svg width="24" height="24" viewBox="0 0 24 24" fill="none" xmlns="http://www.w3.org/2000/svg">
<rect width="24" height="24" rx="4" fill="#F8F9FA"/>
<path d="M12.2924 16.6533L9.58427 16.6027C8.70744 16.585 7.82843 16.6202 6.96879 16.4375C5.66108 16.1645 5.56844 14.8259 5.47149 13.7031C5.33792 12.1245 5.38963 10.5173 5.6417 8.95192C5.78401 8.07358 6.34403 7.54947 7.21008 7.49243C10.1336 7.28545 13.0767 7.30998 15.9937 7.40654C16.3018 7.4154 16.612 7.46378 16.9158 7.51885C18.4153 7.78747 18.4519 9.3044 18.5491 10.5814C18.6461 11.8715 18.6051 13.1683 18.4198 14.4497C18.2712 15.5106 17.9868 16.4003 16.7865 16.4862C15.2827 16.5985 13.8134 16.6889 12.3053 16.6601C12.3054 16.6533 12.2967 16.6533 12.2924 16.6533ZM10.7003 13.9673C11.8336 13.3024 12.9452 12.6485 14.072 11.988C12.9366 11.3231 11.8271 10.6692 10.7003 10.0087V13.9673Z" fill="#212529"/>
</svg>
